<svg width="19" height="32" viewBox="0 0 19 32" fill="none" xmlns="http://www.w3.org/2000/svg">
<path opacity="0.5" d="M17 7.08833L16.9721 22.8751C16.9687 24.8091 16.1767 26.646 14.7704 27.9819C13.3641 29.3177 11.4586 30.0429 9.47318 29.998C7.48776 29.9532 5.58501 29.1418 4.18352 27.7426C2.78203 26.3433 1.99659 24.4707 2.00001 22.5367L2.0279 6.74994C2.03017 5.46061 2.55816 4.23597 3.49571 3.34543C4.43326 2.45489 5.70357 1.97139 7.02718 2.00131C8.3508 2.03123 9.6193 2.5721 10.5536 3.50495C11.488 4.4378 12.0116 5.68621 12.0093 6.97554L11.9726 22.7707C11.9714 23.4153 11.7074 24.0277 11.2387 24.4729C10.7699 24.9182 10.1347 25.16 9.47294 25.145C8.81113 25.13 8.17688 24.8596 7.70972 24.3932C7.24255 23.9268 6.98074 23.3025 6.98188 22.6579L7.01644 8.08239" stroke="#009899" stroke-width="2.5" stroke-linecap="round" stroke-linejoin="round"/>
</svg>
