<svg width="84" height="84" viewBox="0 0 84 84" fill="none" xmlns="http://www.w3.org/2000/svg">
<circle cx="42" cy="42" r="42" fill="#FC015B"/>
<g clip-path="url(#clip0_146_339)">
<path d="M25.8677 48.4745L21.7224 44.3292C21.4255 44.0326 21.2521 43.6343 21.2373 43.2148C21.2226 42.7954 21.3674 42.3859 21.6427 42.069C22.1199 41.5216 22.5196 41.0843 22.8432 40.7607C33.2029 30.401 49.9974 30.401 60.357 40.7607C60.6806 41.0843 61.0815 41.5204 61.5575 42.069C61.8328 42.3859 61.9777 42.7954 61.9629 43.2148C61.9481 43.6343 61.7747 44.0326 61.4778 44.3292L57.3325 48.4745C57.1872 48.6201 56.993 48.7064 56.7877 48.7168C56.5823 48.7272 56.3804 48.6609 56.2211 48.5308C55.9245 48.2881 55.6854 48.0982 55.499 47.9587C53.6401 46.5658 51.5813 45.4619 49.3924 44.6844C49.0466 44.5614 48.8391 44.2085 48.9001 43.8474L49.6222 39.5099C44.4712 37.4525 38.7267 37.4525 33.5757 39.5099L34.2954 43.8404C34.3248 44.0173 34.2912 44.199 34.2003 44.3537C34.1095 44.5083 33.9672 44.6262 33.7984 44.6868C31.611 45.4654 29.5538 46.5701 27.6965 47.9634C27.5101 48.1029 27.2698 48.2916 26.9767 48.5331C26.8174 48.6628 26.6157 48.7287 26.4106 48.7181C26.2055 48.7075 26.0116 48.6211 25.8666 48.4757L25.8677 48.4745Z" fill="white"/>
</g>
<defs>
<clipPath id="clip0_146_339">
<rect width="39.7895" height="39.7895" fill="white" transform="translate(69.7356 43.1053) rotate(135)"/>
</clipPath>
</defs>
</svg>
