<svg width="18" height="18" viewBox="0 0 18 18" fill="none" xmlns="http://www.w3.org/2000/svg">
<g clip-path="url(#clip0_156_790)">
<path d="M6.47915 2.5587C6.66669 2.37116 6.92104 2.26581 7.18626 2.26581H10.8135C11.0787 2.26581 11.3331 2.37116 11.5206 2.5587L12.4201 3.45815C12.6076 3.64568 12.862 3.75104 13.1272 3.75104H15.6834C15.8804 3.75104 16.0693 3.82928 16.2085 3.96855C16.3478 4.10782 16.4261 4.2967 16.4261 4.49366V14.8903C16.4261 15.0872 16.3478 15.2761 16.2085 15.4154C16.0693 15.5547 15.8804 15.6329 15.6834 15.6329H2.31635C2.11939 15.6329 1.93051 15.5547 1.79124 15.4154C1.65197 15.2761 1.57373 15.0872 1.57373 14.8903V4.49366C1.57373 4.2967 1.65197 4.10782 1.79124 3.96855C1.93051 3.82928 2.11939 3.75104 2.31635 3.75104H4.8726C5.13781 3.75104 5.39217 3.64568 5.5797 3.45815L6.47915 2.5587ZM10.9032 13.7221C10.9531 13.6985 10.9731 13.6383 10.9484 13.5889L10.3732 12.4385C10.3485 12.3891 10.2884 12.3692 10.2382 12.3923C9.80919 12.5891 9.33892 12.681 8.8664 12.6597C8.36054 12.6369 7.8689 12.4853 7.43816 12.219C7.00743 11.9528 6.6519 11.5809 6.40534 11.1386C6.15878 10.6963 6.02938 10.1983 6.02943 9.69197H7.35358C7.42792 9.69197 7.47627 9.61373 7.44302 9.54724L5.97065 6.60319C5.94049 6.54288 5.8605 6.52913 5.81334 6.57733C5.10165 7.3047 4.65936 8.25504 4.56258 9.27079C4.4615 10.3317 4.74403 11.3937 5.35892 12.2642C5.9738 13.1346 6.88032 13.7559 7.91402 14.0152C8.91537 14.2664 9.97181 14.1626 10.9032 13.7221ZM7.09657 5.66186C7.04667 5.68547 7.02672 5.74562 7.05141 5.795L7.62663 6.94544C7.65133 6.99484 7.71133 7.0147 7.76153 6.99167C8.1906 6.79488 8.66086 6.70298 9.13338 6.72424C9.63924 6.74699 10.1309 6.89869 10.5616 7.16491C10.9924 7.43113 11.3479 7.80305 11.5944 8.24534C11.841 8.68763 11.9704 9.1856 11.9704 9.69197H10.6462C10.5718 9.69197 10.5235 9.77019 10.5567 9.83668L12.0284 12.7807C12.0585 12.841 12.1386 12.8548 12.1857 12.8066C12.8974 12.0792 13.3397 11.1289 13.4365 10.1131C13.5375 9.05222 13.255 7.9902 12.6401 7.11975C12.0252 6.24929 11.1187 5.62806 10.085 5.36875C9.08367 5.11754 8.02793 5.22138 7.09657 5.66186Z" fill="#009899"/>
</g>
<defs>
<clipPath id="clip0_156_790">
<rect width="17.8228" height="17.8228" fill="white" transform="translate(0.0883789 0.0379639)"/>
</clipPath>
</defs>
</svg>
