<svg width="25" height="25" viewBox="0 0 25 25" fill="none" xmlns="http://www.w3.org/2000/svg">
<path fill-rule="evenodd" clip-rule="evenodd" d="M17.94 6.7364C17.98 6.80633 18.05 6.85627 18.14 6.85627C20.54 6.85627 22.5 8.8141 22.5 11.2114V17.1448C22.5 19.5422 20.54 21.5 18.14 21.5H6.86C4.45 21.5 2.5 19.5422 2.5 17.1448V11.2114C2.5 8.8141 4.45 6.85627 6.86 6.85627C6.94 6.85627 7.02 6.81632 7.05 6.7364L7.11 6.61654C7.14448 6.54397 7.17987 6.46943 7.21579 6.39376C7.47161 5.85492 7.75463 5.25879 7.93 4.90844C8.39 4.00943 9.17 3.50999 10.14 3.5H14.85C15.82 3.50999 16.61 4.00943 17.07 4.90844C17.2275 5.22308 17.4674 5.7299 17.6987 6.21839C17.7464 6.31921 17.7938 6.41924 17.84 6.51665L17.94 6.7364ZM17.21 10.5721C17.21 11.0716 17.61 11.4711 18.11 11.4711C18.61 11.4711 19.02 11.0716 19.02 10.5721C19.02 10.0727 18.61 9.66315 18.11 9.66315C17.61 9.66315 17.21 10.0727 17.21 10.5721ZM10.77 12.1204C11.24 11.6509 11.85 11.4012 12.5 11.4012C13.15 11.4012 13.76 11.6509 14.22 12.1104C14.68 12.5699 14.93 13.1792 14.93 13.8285C14.92 15.167 13.84 16.2558 12.5 16.2558C11.85 16.2558 11.24 16.0061 10.78 15.5466C10.32 15.0871 10.07 14.4778 10.07 13.8285V13.8185C10.06 13.1892 10.31 12.5799 10.77 12.1204ZM15.27 16.6054C14.56 17.3147 13.58 17.7542 12.5 17.7542C11.45 17.7542 10.47 17.3446 9.72 16.6054C8.98 15.8563 8.57 14.8774 8.57 13.8285C8.56 12.7897 8.97 11.8108 9.71 11.0616C10.46 10.3124 11.45 9.90289 12.5 9.90289C13.55 9.90289 14.54 10.3124 15.28 11.0516C16.02 11.8008 16.43 12.7897 16.43 13.8285C16.42 14.9173 15.98 15.8962 15.27 16.6054Z" fill="white"/>
</svg>
