<svg width="39" height="30" viewBox="0 0 39 30" fill="none" xmlns="http://www.w3.org/2000/svg">
<path d="M29.5367 0.120697C29.0989 0.0406976 28.6608 0 28.2351 0C25.5219 0 23.686 1.57564 22.7784 4.68363C21.569 8.82522 24.0393 10.3713 24.5468 10.6393C24.6292 10.6826 24.7045 10.7227 24.7771 10.7649C24.9486 10.8647 25.1128 10.9668 25.2648 11.0684C25.3233 11.1073 25.3789 11.147 25.4351 11.1865C23.5675 12.0393 20.9619 14.3515 20.9416 18.7938C20.9256 22.2964 20.9292 25.3786 20.9351 27.3475C20.9395 28.81 22.1941 30 23.7323 30C25.2747 30 26.5296 28.8064 26.5296 27.3389V26.0394C27.2348 26.3364 28.1145 26.5373 29.2081 26.5373C29.3392 26.5373 29.4732 26.5343 29.6085 26.5283C35.1807 26.2845 38.1145 24.0777 38.6845 12.6913C39.1723 2.9456 32.4495 0.653757 29.5367 0.120697ZM24.8458 18.7249C24.1733 19.2402 23.7176 19.9275 23.5627 20.6601C23.2947 21.9251 23.6277 23.335 24.4321 24.4176V27.3383C24.4321 27.7056 24.118 28.0044 23.7319 28.0044C23.3469 28.0044 23.0327 27.707 23.0317 27.3415C23.026 25.3756 23.0223 22.2986 23.0382 18.8017C23.0602 13.9743 26.6267 12.8645 26.7951 12.8148C26.8586 12.7968 26.9184 12.7723 26.9752 12.7446C27.2965 13.2663 27.4705 13.8201 27.4913 14.4036C27.5607 16.3459 25.8635 17.9447 24.8458 18.7249ZM13.4201 11.0851C13.4289 11.0794 13.4369 11.0734 13.4454 11.0676C13.599 10.9652 13.7629 10.8637 13.9322 10.7649C14.0052 10.7225 14.0804 10.6824 14.1551 10.6432C14.6701 10.3713 17.1402 8.82522 15.9313 4.68363C15.0239 1.57564 13.1881 0 10.4748 0C10.0491 0 9.61099 0.0406976 9.17313 0.120697C6.26012 0.653557 -0.462393 2.9456 0.0251711 12.6909C0.595359 24.0771 3.52892 26.2841 9.1012 26.5277C9.23667 26.5337 9.37067 26.5367 9.50174 26.5367H9.50237C10.8017 26.5367 11.7984 26.2528 12.559 25.8612V27.3385C12.559 28.8058 13.8139 29.9996 15.3565 29.9996C16.8947 29.9996 18.1493 28.8096 18.1537 27.3473C18.1586 25.7593 18.1642 22.5366 18.1472 18.7934C18.1261 14.1626 15.2953 11.8462 13.4201 11.0851ZM16.0567 27.3417C16.0556 27.7072 15.7415 28.0046 15.3565 28.0046C14.9702 28.0046 14.6561 27.7058 14.6561 27.3385V23.8215C15.1799 22.8456 15.368 21.7037 15.147 20.6601C14.9918 19.9275 14.5361 19.2402 13.8638 18.7249C12.8461 17.9449 11.1492 16.3461 11.2182 14.404C11.2412 13.7502 11.456 13.1338 11.8561 12.5582C11.9746 12.6725 12.1201 12.7643 12.2923 12.8148C12.4449 12.8595 16.0282 13.9627 16.0504 18.8019C16.0672 22.5388 16.0617 25.7561 16.0567 27.3417Z" fill="#009899"/>
</svg>
