<svg width="30" height="38" viewBox="0 0 30 38" fill="none" xmlns="http://www.w3.org/2000/svg">
<path opacity="0.7" d="M21.1132 0H26.1922C28.2956 0 30 1.71878 30 3.83996V8.96181C30 11.083 28.2956 12.8018 26.1922 12.8018H21.1132C19.0098 12.8018 17.3054 11.083 17.3054 8.96181V3.83996C17.3054 1.71878 19.0098 0 21.1132 0Z" fill="#C0E6E6"/>
<path fill-rule="evenodd" clip-rule="evenodd" d="M3.8078 0H8.88676C10.9902 0 12.6946 1.71878 12.6946 3.83996V8.96181C12.6946 11.083 10.9902 12.8018 8.88676 12.8018H3.8078C1.70439 12.8018 0 11.083 0 8.96181V3.83996C0 1.71878 1.70439 0 3.8078 0ZM3.8078 17.1982H8.88676C10.9902 17.1982 12.6946 18.917 12.6946 21.0382V26.16C12.6946 28.2798 10.9902 30 8.88676 30H3.8078C1.70439 30 0 28.2798 0 26.16V21.0382C0 18.917 1.70439 17.1982 3.8078 17.1982ZM26.1923 17.1982H21.1133C19.0099 17.1982 17.3055 18.917 17.3055 21.0382V26.16C17.3055 28.2798 19.0099 30 21.1133 30H26.1923C28.2957 30 30.0001 28.2798 30.0001 26.16V21.0382C30.0001 18.917 28.2957 17.1982 26.1923 17.1982Z" fill="#009899"/>
<rect x="10" y="33" width="11" height="5" rx="2.5" fill="#009899"/>
</svg>
