<svg width="28" height="30" viewBox="0 0 28 30" fill="none" xmlns="http://www.w3.org/2000/svg">
<path d="M24.6955 2.1334C22.083 -0.248561 19.1258 -0.245312 16.9152 0.289174C14.713 0.821549 12.4024 0.821549 10.2002 0.289174C7.98968 -0.245312 5.0324 -0.248561 2.41976 2.1334C-2.53042 6.64664 1.45295 14.7088 2.65186 16.0975C3.85076 17.4861 3.88936 19.3377 4.74021 23.1181C5.59105 26.8985 6.67383 30.4859 8.83954 29.9459C11.0053 29.4058 11.5854 26.7828 12.1268 23.2724C12.1641 23.031 12.2029 22.8045 12.2429 22.5917C12.5182 21.1322 14.5971 21.1322 14.8723 22.5917C14.9124 22.8044 14.9513 23.031 14.9886 23.2724C15.53 26.7828 16.1102 29.4058 18.2759 29.9459C20.4416 30.4859 21.5244 26.8985 22.3752 23.1181C23.2261 19.3377 23.2647 17.4861 24.4636 16.0975C25.6625 14.7088 29.6458 6.64664 24.6955 2.1334ZM9.57573 3.8868C9.51579 4.33031 9.10747 4.64191 8.66315 4.58407C8.50403 4.56441 4.9736 4.17565 3.98171 8.02006C3.88708 8.38656 3.55629 8.63009 3.19357 8.63009C3.1263 8.63009 3.05806 8.6218 2.98998 8.60425C2.55446 8.49248 2.29223 8.04962 2.40429 7.61521C3.49114 3.40268 7.11342 2.73741 8.877 2.97347C9.32279 3.03325 9.6355 3.44216 9.57573 3.8868Z" fill="#009899"/>
</svg>
