<svg width="88" height="116" viewBox="0 0 88 116" fill="none" xmlns="http://www.w3.org/2000/svg">
<g clip-path="url(#clip0_852_420)">
<path d="M61.9296 113.278C55.6399 114.078 49.6223 115.002 43.5702 115.559C38.166 116.06 32.7835 115.572 27.5651 113.918C17.0462 110.578 12.4974 102.56 14.9684 91.8029C16.2427 86.2515 18.6532 81.184 21.932 76.6003C31.4357 63.3289 41.9805 51.0251 55.4801 41.5727C58.3096 39.5941 61.1909 37.6889 64.1025 35.8355C64.7807 35.4035 65.6922 35.1486 66.5 35.14C72.1677 35.0838 77.8397 35.1011 83.5074 35.1141C86.4578 35.1184 87.9827 36.6477 87.9871 39.6113C87.9957 46.5754 87.9957 53.5438 87.9871 60.5078C87.9827 63.5708 86.5053 65.0613 83.408 65.0699C75.9044 65.0872 68.3965 65.0742 60.8929 65.0785C60.3097 65.0785 59.7222 65.0785 58.9187 65.0785C58.9187 65.8086 58.9187 66.3832 58.9187 66.9578C58.9187 74.4619 58.923 81.9703 58.9187 89.4744C58.9144 92.6929 57.5018 94.1099 54.2878 94.1099C47.376 94.1142 40.4642 94.1185 33.5524 94.1099C30.4637 94.1055 29.0036 92.6453 28.9906 89.5608C28.9734 84.4846 28.9734 79.4084 28.9604 74.3366C28.9604 74.302 28.8956 74.2675 28.861 74.2329C28.766 74.2416 28.6191 74.2113 28.5759 74.2632C23.9148 80.1385 19.7245 86.2688 18.597 93.9241C17.651 100.335 20.1133 105.208 25.5736 108.578C29.5133 111.01 33.9239 112.021 38.4598 112.531C45.553 113.33 52.5685 112.648 59.5623 111.421C60.7719 111.209 61.2255 110.742 61.4285 109.546C61.8735 106.923 64.0766 105.273 66.7636 105.338C69.2518 105.394 71.3988 107.191 71.8092 109.554C72.2671 112.22 70.9711 114.631 68.5563 115.59C66.0335 116.6 63.6835 115.723 61.9296 113.278ZM66.5605 113.192C67.9429 113.218 69.1438 112.069 69.174 110.682C69.2043 109.321 68.0206 108.094 66.6556 108.064C65.2948 108.038 64.0723 109.217 64.0507 110.587C64.0291 111.978 65.1695 113.166 66.5605 113.192Z" fill="#777A95"/>
<path d="M40.8313 35.2005C32.5372 44.087 25.5304 53.5481 19.9361 64.0417C19.7245 64.4435 19.0506 64.828 18.5883 64.8323C13.6205 64.8885 8.65695 64.8885 3.68911 64.8496C1.65445 64.8323 0.0647407 63.3505 0.0474612 61.2725C-0.0130169 53.8246 -0.0216567 46.3723 0.0517811 38.9244C0.0733804 36.6477 1.84021 35.2221 4.30685 35.2177C13.2144 35.2005 22.122 35.2048 31.0295 35.2005C34.209 35.2005 37.3884 35.2005 40.8313 35.2005Z" fill="#009899"/>
<path d="M59.1217 15.3754C59.0957 23.8299 52.3438 30.5045 43.8423 30.4829C35.4617 30.4613 28.7746 23.6398 28.7962 15.1378C28.8135 6.7135 35.6821 -0.0863971 44.0799 5.66273e-06C52.5079 0.0907285 59.1476 6.87766 59.1217 15.3754Z" fill="#009899"/>
</g>
<defs>
<clipPath id="clip0_852_420">
<rect width="88" height="116" fill="white"/>
</clipPath>
</defs>
</svg>
