<svg width="221" height="247" viewBox="0 0 221 247" fill="none" xmlns="http://www.w3.org/2000/svg">
<path d="M135.848 165.058C126.842 166.216 118.226 167.555 109.561 168.362C101.823 169.088 94.1162 168.381 86.6444 165.984C71.5833 161.148 65.0702 149.535 68.6082 133.956C70.4328 125.916 73.8842 118.577 78.5788 111.938C92.1864 92.7177 107.285 74.8985 126.614 61.2087C130.665 58.3431 134.79 55.5839 138.959 52.8997C139.93 52.274 141.236 51.9049 142.392 51.8924C150.507 51.811 158.629 51.8361 166.744 51.8548C170.968 51.8611 173.152 54.076 173.158 58.3681C173.17 68.454 173.17 78.5461 173.158 88.632C173.152 93.0681 171.036 95.2266 166.601 95.2391C155.858 95.2642 145.108 95.2454 134.364 95.2517C133.529 95.2517 132.688 95.2517 131.537 95.2517C131.537 96.309 131.537 97.1412 131.537 97.9733C131.537 108.841 131.543 119.716 131.537 130.584C131.531 135.245 129.508 137.297 124.906 137.297C115.01 137.303 105.114 137.31 95.2172 137.297C90.7947 137.291 88.7041 135.176 88.6856 130.709C88.6608 123.357 88.6608 116.005 88.6423 108.66C88.6423 108.61 88.5495 108.56 88.5 108.51C88.3639 108.522 88.1536 108.478 88.0918 108.554C81.4179 117.063 75.4182 125.941 73.8038 137.028C72.4492 146.313 75.9748 153.371 83.793 158.251C89.434 161.773 95.7491 163.238 102.244 163.976C112.4 165.133 122.445 164.145 132.459 162.368C134.191 162.061 134.84 161.385 135.131 159.652C135.768 155.855 138.922 153.464 142.77 153.558C146.332 153.64 149.406 156.242 149.994 159.665C150.65 163.525 148.794 167.017 145.336 168.406C141.724 169.87 138.359 168.6 135.848 165.058ZM142.479 164.933C144.458 164.971 146.178 163.306 146.221 161.298C146.264 159.327 144.569 157.55 142.615 157.506C140.667 157.469 138.916 159.177 138.885 161.16C138.854 163.175 140.487 164.896 142.479 164.933Z" fill="#777A95"/>
<path d="M105.639 51.98C93.7637 64.8501 83.7312 78.5524 75.7212 93.7501C75.4182 94.3319 74.4533 94.8888 73.7914 94.895C66.6784 94.9764 59.5715 94.9764 52.4585 94.9201C49.5452 94.895 47.269 92.749 47.2443 89.7395C47.1577 78.9528 47.1453 68.16 47.2505 57.3733C47.2814 54.076 49.8112 52.0113 53.343 52.005C66.097 51.98 78.851 51.9862 91.605 51.98C96.1573 51.98 100.71 51.98 105.639 51.98Z" fill="#009899"/>
<path d="M131.828 23.2678C131.791 35.5122 122.123 45.1789 109.95 45.1476C97.9511 45.1163 88.3763 35.2369 88.4072 22.9236C88.432 10.723 98.2665 0.874854 110.291 0.999989C122.358 1.13138 131.865 10.9607 131.828 23.2678Z" fill="#009899"/>
<path d="M3.88 213C2.73333 213 1.8 212.653 1.08 211.96C0.36 211.267 0 210.36 0 209.24V185H13.36C15.4933 185 17.36 185.4 18.96 186.2C20.5867 187 21.84 188.133 22.72 189.6C23.6267 191.067 24.08 192.76 24.08 194.68V202.52C24.08 205.96 23.1867 208.573 21.4 210.36C19.6133 212.12 16.9867 213 13.52 213H3.88ZM13.36 208.12C15.0667 208.12 16.36 207.627 17.24 206.64C18.12 205.653 18.56 204.2 18.56 202.28V194.92C18.56 193.4 18.0667 192.187 17.08 191.28C16.0933 190.347 14.8 189.88 13.2 189.88H5.52V208.12H13.36Z" fill="#009899"/>
<path d="M35.6459 213.32C33.9659 213.32 32.4726 213 31.1659 212.36C29.8859 211.693 28.8859 210.76 28.1659 209.56C27.4726 208.36 27.1259 206.973 27.1259 205.4V200.72C27.1259 199.147 27.4859 197.76 28.2059 196.56C28.9259 195.333 29.9259 194.387 31.2059 193.72C32.5126 193.053 34.0059 192.72 35.6859 192.72H39.2859C40.9659 192.72 42.4459 193.053 43.7259 193.72C45.0326 194.387 46.0459 195.333 46.7659 196.56C47.4859 197.76 47.8459 199.147 47.8459 200.72V205.4C47.8459 206.973 47.4859 208.36 46.7659 209.56C46.0459 210.76 45.0326 211.693 43.7259 212.36C42.4459 213 40.9526 213.32 39.2459 213.32H35.6459ZM39.1659 208.64C40.1526 208.64 40.9393 208.307 41.5259 207.64C42.1126 206.947 42.4059 206.053 42.4059 204.96V201.08C42.4059 199.987 42.1126 199.107 41.5259 198.44C40.9393 197.747 40.1659 197.4 39.2059 197.4H35.7659C34.8059 197.4 34.0326 197.747 33.4459 198.44C32.8593 199.107 32.5659 199.987 32.5659 201.08V204.96C32.5659 206.053 32.8593 206.947 33.4459 207.64C34.0326 208.307 34.7926 208.64 35.7259 208.64H39.1659Z" fill="#009899"/>
<path d="M59.3959 213.32C57.7159 213.32 56.2226 212.987 54.9159 212.32C53.6359 211.653 52.6359 210.72 51.9159 209.52C51.2226 208.32 50.8759 206.933 50.8759 205.36V200.68C50.8759 199.107 51.2226 197.72 51.9159 196.52C52.6359 195.32 53.6359 194.387 54.9159 193.72C56.1959 193.053 57.6759 192.72 59.3559 192.72H62.5159C64.1159 192.72 65.5293 193.04 66.7559 193.68C67.9826 194.32 68.9293 195.227 69.5959 196.4C70.2626 197.547 70.5959 198.88 70.5959 200.4H65.1959C65.1959 199.493 64.9426 198.773 64.4359 198.24C63.9559 197.68 63.3159 197.4 62.5159 197.4H59.4359C58.5026 197.4 57.7426 197.747 57.1559 198.44C56.5959 199.107 56.3159 199.987 56.3159 201.08V204.96C56.3159 206.053 56.6093 206.947 57.1959 207.64C57.7826 208.307 58.5426 208.64 59.4759 208.64H62.5559C63.4093 208.64 64.0893 208.333 64.5959 207.72C65.1293 207.107 65.3959 206.293 65.3959 205.28H70.7959C70.7959 207.707 70.0359 209.653 68.5159 211.12C67.0226 212.587 65.0359 213.32 62.5559 213.32H59.3959Z" fill="#009899"/>
<path d="M82.6225 213C80.2758 213 78.5558 212.467 77.4625 211.4C76.3692 210.333 75.8225 208.68 75.8225 206.44V197.68H72.3025V193.04H75.9825V187H81.2625V193.04H86.4625V197.68H81.2625V206.2C81.2625 206.947 81.3958 207.493 81.6625 207.84C81.9558 208.187 82.4092 208.36 83.0225 208.36H86.4625V213H82.6225Z" fill="#009899"/>
<path d="M97.4037 213.32C95.7237 213.32 94.2304 213 92.9238 212.36C91.6438 211.693 90.6438 210.76 89.9238 209.56C89.2304 208.36 88.8838 206.973 88.8838 205.4V200.72C88.8838 199.147 89.2438 197.76 89.9638 196.56C90.6838 195.333 91.6838 194.387 92.9638 193.72C94.2704 193.053 95.7637 192.72 97.4437 192.72H101.044C102.724 192.72 104.204 193.053 105.484 193.72C106.79 194.387 107.804 195.333 108.524 196.56C109.244 197.76 109.604 199.147 109.604 200.72V205.4C109.604 206.973 109.244 208.36 108.524 209.56C107.804 210.76 106.79 211.693 105.484 212.36C104.204 213 102.71 213.32 101.004 213.32H97.4037ZM100.924 208.64C101.91 208.64 102.697 208.307 103.284 207.64C103.87 206.947 104.164 206.053 104.164 204.96V201.08C104.164 199.987 103.87 199.107 103.284 198.44C102.697 197.747 101.924 197.4 100.964 197.4H97.5238C96.5638 197.4 95.7904 197.747 95.2038 198.44C94.6171 199.107 94.3238 199.987 94.3238 201.08V204.96C94.3238 206.053 94.6171 206.947 95.2038 207.64C95.7904 208.307 96.5504 208.64 97.4837 208.64H100.924Z" fill="#009899"/>
<path d="M113.434 193.04H118.474V195.6C118.98 194.827 119.7 194.2 120.634 193.72C121.594 193.213 122.594 192.96 123.634 192.96H126.354V197.68H123.634C122.22 197.68 121.074 198.107 120.194 198.96C119.314 199.813 118.874 200.907 118.874 202.24V213H113.434V193.04Z" fill="#009899"/>
<path d="M141.666 207.64H130.266C129.146 207.64 128.28 207.4 127.666 206.92C127.053 206.44 126.746 205.747 126.746 204.84V203.72L141.626 185H147.186V202.76H150.706V207.64H147.186V213H141.666V207.64ZM141.826 203V191.92H141.786L133.026 203H141.826Z" fill="#009899"/>
<path d="M161.35 221.12C159.19 221.12 157.403 220.507 155.99 219.28C154.603 218.08 153.83 216.493 153.67 214.52H159.03C159.083 215.107 159.323 215.573 159.75 215.92C160.177 216.293 160.71 216.48 161.35 216.48H164.63C165.457 216.48 166.123 216.133 166.63 215.44C167.163 214.773 167.43 213.893 167.43 212.8V210.2C166.817 211.027 166.11 211.68 165.31 212.16C164.537 212.613 163.763 212.84 162.99 212.84H160.35C158.243 212.84 156.55 212.147 155.27 210.76C153.99 209.347 153.35 207.48 153.35 205.16V193.04H158.79V205.24C158.79 206.12 159.003 206.84 159.43 207.4C159.883 207.933 160.47 208.2 161.19 208.2H163.51C164.39 208.2 165.19 207.84 165.91 207.12C166.63 206.373 167.137 205.4 167.43 204.2V193.04H172.87V212.8C172.87 214.453 172.523 215.907 171.83 217.16C171.163 218.413 170.203 219.387 168.95 220.08C167.697 220.773 166.257 221.12 164.63 221.12H161.35Z" fill="#009899"/>
<path d="M185.216 213.32C183.536 213.32 182.043 213 180.736 212.36C179.456 211.693 178.456 210.76 177.736 209.56C177.043 208.36 176.696 206.973 176.696 205.4V200.72C176.696 199.147 177.056 197.76 177.776 196.56C178.496 195.333 179.496 194.387 180.776 193.72C182.083 193.053 183.576 192.72 185.256 192.72H188.856C190.536 192.72 192.016 193.053 193.296 193.72C194.603 194.387 195.616 195.333 196.336 196.56C197.056 197.76 197.416 199.147 197.416 200.72V205.4C197.416 206.973 197.056 208.36 196.336 209.56C195.616 210.76 194.603 211.693 193.296 212.36C192.016 213 190.523 213.32 188.816 213.32H185.216ZM188.736 208.64C189.723 208.64 190.51 208.307 191.096 207.64C191.683 206.947 191.976 206.053 191.976 204.96V201.08C191.976 199.987 191.683 199.107 191.096 198.44C190.51 197.747 189.736 197.4 188.776 197.4H185.336C184.376 197.4 183.603 197.747 183.016 198.44C182.43 199.107 182.136 199.987 182.136 201.08V204.96C182.136 206.053 182.43 206.947 183.016 207.64C183.603 208.307 184.363 208.64 185.296 208.64H188.736Z" fill="#009899"/>
<path d="M208.006 213.32C205.9 213.32 204.206 212.613 202.926 211.2C201.646 209.76 201.006 207.88 201.006 205.56V193.04H206.446V205.64C206.446 206.52 206.66 207.24 207.086 207.8C207.54 208.333 208.126 208.6 208.846 208.6H211.166C212.046 208.6 212.846 208.24 213.566 207.52C214.286 206.773 214.793 205.8 215.086 204.6V193.04H220.526V213H215.486V210.44C214.873 211.293 214.113 211.987 213.206 212.52C212.326 213.053 211.473 213.32 210.646 213.32H208.006Z" fill="#009899"/>
<path d="M42.0882 236.556C42.0882 237.522 41.9352 238.401 41.6292 239.193C41.3232 239.985 40.8912 240.663 40.3332 241.227C39.7752 241.791 39.1062 242.229 38.3262 242.541C37.5462 242.847 36.6822 243 35.7342 243H30.9102V230.103H35.7342C36.6822 230.103 37.5462 230.259 38.3262 230.571C39.1062 230.877 39.7752 231.315 40.3332 231.885C40.8912 232.449 41.3232 233.127 41.6292 233.919C41.9352 234.711 42.0882 235.59 42.0882 236.556ZM40.2972 236.556C40.2972 235.764 40.1892 235.056 39.9732 234.432C39.7572 233.808 39.4512 233.28 39.0552 232.848C38.6592 232.416 38.1792 232.086 37.6152 231.858C37.0512 231.63 36.4242 231.516 35.7342 231.516H32.6652V241.587H35.7342C36.4242 241.587 37.0512 241.473 37.6152 241.245C38.1792 241.017 38.6592 240.69 39.0552 240.264C39.4512 239.832 39.7572 239.304 39.9732 238.68C40.1892 238.056 40.2972 237.348 40.2972 236.556Z" fill="#777A95"/>
<path d="M47.901 233.739C48.567 233.739 49.167 233.85 49.701 234.072C50.241 234.294 50.697 234.609 51.069 235.017C51.447 235.425 51.735 235.92 51.933 236.502C52.137 237.078 52.239 237.723 52.239 238.437C52.239 239.157 52.137 239.805 51.933 240.381C51.735 240.957 51.447 241.449 51.069 241.857C50.697 242.265 50.241 242.58 49.701 242.802C49.167 243.018 48.567 243.126 47.901 243.126C47.235 243.126 46.632 243.018 46.092 242.802C45.558 242.58 45.102 242.265 44.724 241.857C44.346 241.449 44.055 240.957 43.851 240.381C43.647 239.805 43.545 239.157 43.545 238.437C43.545 237.723 43.647 237.078 43.851 236.502C44.055 235.92 44.346 235.425 44.724 235.017C45.102 234.609 45.558 234.294 46.092 234.072C46.632 233.85 47.235 233.739 47.901 233.739ZM47.901 241.875C48.801 241.875 49.473 241.575 49.917 240.975C50.361 240.369 50.583 239.526 50.583 238.446C50.583 237.36 50.361 236.514 49.917 235.908C49.473 235.302 48.801 234.999 47.901 234.999C47.445 234.999 47.049 235.077 46.713 235.233C46.377 235.389 46.095 235.614 45.867 235.908C45.645 236.202 45.477 236.565 45.363 236.997C45.255 237.423 45.201 237.906 45.201 238.446C45.201 238.986 45.255 239.469 45.363 239.895C45.477 240.321 45.645 240.681 45.867 240.975C46.095 241.263 46.377 241.485 46.713 241.641C47.049 241.797 47.445 241.875 47.901 241.875Z" fill="#777A95"/>
<path d="M60.4319 235.503C60.3839 235.569 60.3359 235.62 60.2879 235.656C60.2399 235.692 60.1709 235.71 60.0809 235.71C59.9909 235.71 59.8919 235.674 59.7839 235.602C59.6819 235.524 59.5499 235.44 59.3879 235.35C59.2259 235.26 59.0279 235.179 58.7939 235.107C58.5659 235.029 58.2839 234.99 57.9479 234.99C57.5039 234.99 57.1109 235.071 56.7689 235.233C56.4269 235.389 56.1389 235.617 55.9049 235.917C55.6769 236.217 55.5029 236.58 55.3829 237.006C55.2689 237.432 55.2119 237.909 55.2119 238.437C55.2119 238.989 55.2749 239.481 55.4009 239.913C55.5269 240.339 55.7039 240.699 55.9319 240.993C56.1599 241.281 56.4359 241.503 56.7599 241.659C57.0899 241.809 57.4589 241.884 57.8669 241.884C58.2569 241.884 58.5779 241.839 58.8299 241.749C59.0819 241.653 59.2919 241.548 59.4599 241.434C59.6279 241.32 59.7659 241.218 59.8739 241.128C59.9819 241.032 60.0899 240.984 60.1979 240.984C60.3359 240.984 60.4379 241.035 60.5039 241.137L60.9539 241.722C60.5579 242.208 60.0629 242.565 59.4689 242.793C58.8749 243.015 58.2479 243.126 57.5879 243.126C57.0179 243.126 56.4869 243.021 55.9949 242.811C55.5089 242.601 55.0859 242.298 54.7259 241.902C54.3659 241.5 54.0809 241.008 53.8709 240.426C53.6669 239.844 53.5649 239.181 53.5649 238.437C53.5649 237.759 53.6579 237.132 53.8439 236.556C54.0359 235.98 54.3119 235.485 54.6719 235.071C55.0379 234.651 55.4879 234.324 56.0219 234.09C56.5559 233.856 57.1679 233.739 57.8579 233.739C58.4939 233.739 59.0579 233.844 59.5499 234.054C60.0419 234.258 60.4769 234.549 60.8549 234.927L60.4319 235.503Z" fill="#777A95"/>
<path d="M65.3783 243.144C64.6582 243.144 64.1032 242.943 63.7132 242.541C63.3293 242.139 63.1372 241.56 63.1372 240.804V235.224H62.0392C61.9432 235.224 61.8622 235.197 61.7962 235.143C61.7302 235.083 61.6973 234.993 61.6973 234.873V234.234L63.1912 234.045L63.5602 231.228C63.5723 231.138 63.6113 231.066 63.6772 231.012C63.7433 230.952 63.8272 230.922 63.9292 230.922H64.7393V234.063H67.3493V235.224H64.7393V240.696C64.7393 241.08 64.8323 241.365 65.0182 241.551C65.2042 241.737 65.4443 241.83 65.7383 241.83C65.9062 241.83 66.0502 241.809 66.1702 241.767C66.2962 241.719 66.4043 241.668 66.4942 241.614C66.5842 241.56 66.6593 241.512 66.7193 241.47C66.7853 241.422 66.8423 241.398 66.8903 241.398C66.9743 241.398 67.0492 241.449 67.1152 241.551L67.5833 242.316C67.3073 242.574 66.9743 242.778 66.5843 242.928C66.1943 243.072 65.7923 243.144 65.3783 243.144Z" fill="#777A95"/>
<path d="M73.0201 233.739C73.6861 233.739 74.2861 233.85 74.8201 234.072C75.3601 234.294 75.8161 234.609 76.1881 235.017C76.5661 235.425 76.8541 235.92 77.0521 236.502C77.2561 237.078 77.3581 237.723 77.3581 238.437C77.3581 239.157 77.2561 239.805 77.0521 240.381C76.8541 240.957 76.5661 241.449 76.1881 241.857C75.8161 242.265 75.3601 242.58 74.8201 242.802C74.2861 243.018 73.6861 243.126 73.0201 243.126C72.3541 243.126 71.7511 243.018 71.2111 242.802C70.6771 242.58 70.2211 242.265 69.8431 241.857C69.4651 241.449 69.1741 240.957 68.9701 240.381C68.7661 239.805 68.6641 239.157 68.6641 238.437C68.6641 237.723 68.7661 237.078 68.9701 236.502C69.1741 235.92 69.4651 235.425 69.8431 235.017C70.2211 234.609 70.6771 234.294 71.2111 234.072C71.7511 233.85 72.3541 233.739 73.0201 233.739ZM73.0201 241.875C73.9201 241.875 74.5921 241.575 75.0361 240.975C75.4801 240.369 75.7021 239.526 75.7021 238.446C75.7021 237.36 75.4801 236.514 75.0361 235.908C74.5921 235.302 73.9201 234.999 73.0201 234.999C72.5641 234.999 72.1681 235.077 71.8321 235.233C71.4961 235.389 71.2141 235.614 70.9861 235.908C70.7641 236.202 70.5961 236.565 70.4821 236.997C70.3741 237.423 70.3201 237.906 70.3201 238.446C70.3201 238.986 70.3741 239.469 70.4821 239.895C70.5961 240.321 70.7641 240.681 70.9861 240.975C71.2141 241.263 71.4961 241.485 71.8321 241.641C72.1681 241.797 72.5641 241.875 73.0201 241.875Z" fill="#777A95"/>
<path d="M79.332 243V233.883H80.25C80.424 233.883 80.544 233.916 80.61 233.982C80.676 234.048 80.721 234.162 80.745 234.324L80.8531 235.746C81.165 235.11 81.549 234.615 82.0051 234.261C82.467 233.901 83.007 233.721 83.625 233.721C83.877 233.721 84.105 233.751 84.309 233.811C84.513 233.865 84.702 233.943 84.876 234.045L84.669 235.242C84.627 235.392 84.534 235.467 84.39 235.467C84.306 235.467 84.177 235.44 84.003 235.386C83.829 235.326 83.586 235.296 83.274 235.296C82.716 235.296 82.248 235.458 81.87 235.782C81.498 236.106 81.186 236.577 80.934 237.195V243H79.332Z" fill="#777A95"/>
<path d="M96.7683 243H96.0573C95.9013 243 95.7753 242.976 95.6793 242.928C95.5833 242.88 95.5203 242.778 95.4903 242.622L95.3103 241.776C95.0703 241.992 94.8363 242.187 94.6083 242.361C94.3803 242.529 94.1403 242.673 93.8883 242.793C93.6363 242.907 93.3663 242.994 93.0783 243.054C92.7963 243.114 92.4813 243.144 92.1333 243.144C91.7793 243.144 91.4463 243.096 91.1343 243C90.8283 242.898 90.5613 242.748 90.3333 242.55C90.1053 242.352 89.9223 242.103 89.7843 241.803C89.6523 241.497 89.5863 241.137 89.5863 240.723C89.5863 240.363 89.6853 240.018 89.8833 239.688C90.0813 239.352 90.3993 239.055 90.8373 238.797C91.2813 238.539 91.8603 238.329 92.5743 238.167C93.2883 237.999 94.1613 237.903 95.1933 237.879V237.168C95.1933 236.46 95.0403 235.926 94.7343 235.566C94.4343 235.2 93.9873 235.017 93.3933 235.017C93.0033 235.017 92.6733 235.068 92.4033 235.17C92.1393 235.266 91.9083 235.377 91.7103 235.503C91.5183 235.623 91.3503 235.734 91.2063 235.836C91.0683 235.932 90.9303 235.98 90.7923 235.98C90.6843 235.98 90.5883 235.953 90.5043 235.899C90.4263 235.839 90.3633 235.767 90.3153 235.683L90.0273 235.17C90.5313 234.684 91.0743 234.321 91.6563 234.081C92.2383 233.841 92.8833 233.721 93.5913 233.721C94.1013 233.721 94.5543 233.805 94.9503 233.973C95.3463 234.141 95.6793 234.375 95.9493 234.675C96.2193 234.975 96.4233 235.338 96.5613 235.764C96.6993 236.19 96.7683 236.658 96.7683 237.168V243ZM92.6103 242.019C92.8923 242.019 93.1503 241.992 93.3843 241.938C93.6183 241.878 93.8373 241.797 94.0413 241.695C94.2513 241.587 94.4493 241.458 94.6353 241.308C94.8273 241.158 95.0133 240.987 95.1933 240.795V238.896C94.4553 238.92 93.8283 238.98 93.3123 239.076C92.7963 239.166 92.3763 239.286 92.0523 239.436C91.7283 239.586 91.4913 239.763 91.3413 239.967C91.1973 240.171 91.1253 240.399 91.1253 240.651C91.1253 240.891 91.1643 241.098 91.2423 241.272C91.3203 241.446 91.4253 241.59 91.5573 241.704C91.6893 241.812 91.8453 241.893 92.0253 241.947C92.2053 241.995 92.4003 242.019 92.6103 242.019Z" fill="#777A95"/>
<path d="M99.1953 246.087V233.883H100.149C100.377 233.883 100.521 233.994 100.581 234.216L100.716 235.296C101.106 234.822 101.55 234.441 102.048 234.153C102.552 233.865 103.131 233.721 103.785 233.721C104.307 233.721 104.781 233.823 105.207 234.027C105.633 234.225 105.996 234.522 106.296 234.918C106.596 235.308 106.827 235.794 106.989 236.376C107.151 236.958 107.232 237.627 107.232 238.383C107.232 239.055 107.142 239.682 106.962 240.264C106.782 240.84 106.524 241.341 106.188 241.767C105.852 242.187 105.438 242.52 104.946 242.766C104.46 243.006 103.911 243.126 103.299 243.126C102.735 243.126 102.252 243.033 101.85 242.847C101.454 242.661 101.103 242.397 100.797 242.055V246.087H99.1953ZM103.254 235.017C102.732 235.017 102.273 235.137 101.877 235.377C101.487 235.617 101.127 235.956 100.797 236.394V240.804C101.091 241.2 101.412 241.479 101.76 241.641C102.114 241.803 102.507 241.884 102.939 241.884C103.785 241.884 104.436 241.581 104.892 240.975C105.348 240.369 105.576 239.505 105.576 238.383C105.576 237.789 105.522 237.279 105.414 236.853C105.312 236.427 105.162 236.079 104.964 235.809C104.766 235.533 104.523 235.332 104.235 235.206C103.947 235.08 103.62 235.017 103.254 235.017Z" fill="#777A95"/>
<path d="M109.127 246.087V233.883H110.081C110.309 233.883 110.453 233.994 110.513 234.216L110.648 235.296C111.038 234.822 111.482 234.441 111.98 234.153C112.484 233.865 113.063 233.721 113.717 233.721C114.239 233.721 114.713 233.823 115.139 234.027C115.565 234.225 115.928 234.522 116.228 234.918C116.528 235.308 116.759 235.794 116.921 236.376C117.083 236.958 117.164 237.627 117.164 238.383C117.164 239.055 117.074 239.682 116.894 240.264C116.714 240.84 116.456 241.341 116.12 241.767C115.784 242.187 115.37 242.52 114.878 242.766C114.392 243.006 113.843 243.126 113.231 243.126C112.667 243.126 112.184 243.033 111.782 242.847C111.386 242.661 111.035 242.397 110.729 242.055V246.087H109.127ZM113.186 235.017C112.664 235.017 112.205 235.137 111.809 235.377C111.419 235.617 111.059 235.956 110.729 236.394V240.804C111.023 241.2 111.344 241.479 111.692 241.641C112.046 241.803 112.439 241.884 112.871 241.884C113.717 241.884 114.368 241.581 114.824 240.975C115.28 240.369 115.508 239.505 115.508 238.383C115.508 237.789 115.454 237.279 115.346 236.853C115.244 236.427 115.094 236.079 114.896 235.809C114.698 235.533 114.455 235.332 114.167 235.206C113.879 235.08 113.552 235.017 113.186 235.017Z" fill="#777A95"/>
<path d="M122.749 233.739C123.415 233.739 124.015 233.85 124.549 234.072C125.089 234.294 125.545 234.609 125.917 235.017C126.295 235.425 126.583 235.92 126.781 236.502C126.985 237.078 127.087 237.723 127.087 238.437C127.087 239.157 126.985 239.805 126.781 240.381C126.583 240.957 126.295 241.449 125.917 241.857C125.545 242.265 125.089 242.58 124.549 242.802C124.015 243.018 123.415 243.126 122.749 243.126C122.083 243.126 121.48 243.018 120.94 242.802C120.406 242.58 119.95 242.265 119.572 241.857C119.194 241.449 118.903 240.957 118.699 240.381C118.495 239.805 118.393 239.157 118.393 238.437C118.393 237.723 118.495 237.078 118.699 236.502C118.903 235.92 119.194 235.425 119.572 235.017C119.95 234.609 120.406 234.294 120.94 234.072C121.48 233.85 122.083 233.739 122.749 233.739ZM122.749 241.875C123.649 241.875 124.321 241.575 124.765 240.975C125.209 240.369 125.431 239.526 125.431 238.446C125.431 237.36 125.209 236.514 124.765 235.908C124.321 235.302 123.649 234.999 122.749 234.999C122.293 234.999 121.897 235.077 121.561 235.233C121.225 235.389 120.943 235.614 120.715 235.908C120.493 236.202 120.325 236.565 120.211 236.997C120.103 237.423 120.049 237.906 120.049 238.446C120.049 238.986 120.103 239.469 120.211 239.895C120.325 240.321 120.493 240.681 120.715 240.975C120.943 241.263 121.225 241.485 121.561 241.641C121.897 241.797 122.293 241.875 122.749 241.875Z" fill="#777A95"/>
<path d="M130.843 233.883V243H129.241V233.883H130.843ZM131.203 231.021C131.203 231.177 131.17 231.324 131.104 231.462C131.044 231.594 130.96 231.714 130.852 231.822C130.75 231.924 130.63 232.005 130.492 232.065C130.354 232.125 130.207 232.155 130.051 232.155C129.895 232.155 129.748 232.125 129.61 232.065C129.478 232.005 129.358 231.924 129.25 231.822C129.148 231.714 129.067 231.594 129.007 231.462C128.947 231.324 128.917 231.177 128.917 231.021C128.917 230.865 128.947 230.718 129.007 230.58C129.067 230.436 129.148 230.313 129.25 230.211C129.358 230.103 129.478 230.019 129.61 229.959C129.748 229.899 129.895 229.869 130.051 229.869C130.207 229.869 130.354 229.899 130.492 229.959C130.63 230.019 130.75 230.103 130.852 230.211C130.96 230.313 131.044 230.436 131.104 230.58C131.17 230.718 131.203 230.865 131.203 231.021Z" fill="#777A95"/>
<path d="M133.666 243V233.883H134.62C134.848 233.883 134.992 233.994 135.052 234.216L135.178 235.206C135.574 234.768 136.015 234.414 136.501 234.144C136.993 233.874 137.56 233.739 138.202 233.739C138.7 233.739 139.138 233.823 139.516 233.991C139.9 234.153 140.218 234.387 140.47 234.693C140.728 234.993 140.923 235.356 141.055 235.782C141.187 236.208 141.253 236.679 141.253 237.195V243H139.651V237.195C139.651 236.505 139.492 235.971 139.174 235.593C138.862 235.209 138.382 235.017 137.734 235.017C137.26 235.017 136.816 235.131 136.402 235.359C135.994 235.587 135.616 235.896 135.268 236.286V243H133.666Z" fill="#777A95"/>
<path d="M146.431 243.144C145.711 243.144 145.156 242.943 144.766 242.541C144.382 242.139 144.19 241.56 144.19 240.804V235.224H143.092C142.996 235.224 142.915 235.197 142.849 235.143C142.783 235.083 142.75 234.993 142.75 234.873V234.234L144.244 234.045L144.613 231.228C144.625 231.138 144.664 231.066 144.73 231.012C144.796 230.952 144.88 230.922 144.982 230.922H145.792V234.063H148.402V235.224H145.792V240.696C145.792 241.08 145.885 241.365 146.071 241.551C146.257 241.737 146.497 241.83 146.791 241.83C146.959 241.83 147.103 241.809 147.223 241.767C147.349 241.719 147.457 241.668 147.547 241.614C147.637 241.56 147.712 241.512 147.772 241.47C147.838 241.422 147.895 241.398 147.943 241.398C148.027 241.398 148.102 241.449 148.168 241.551L148.636 242.316C148.36 242.574 148.027 242.778 147.637 242.928C147.247 243.072 146.845 243.144 146.431 243.144Z" fill="#777A95"/>
<path d="M150.383 243V233.883H151.337C151.565 233.883 151.709 233.994 151.769 234.216L151.886 235.152C152.222 234.738 152.597 234.399 153.011 234.135C153.431 233.871 153.917 233.739 154.469 233.739C155.087 233.739 155.585 233.91 155.963 234.252C156.347 234.594 156.623 235.056 156.791 235.638C156.917 235.308 157.082 235.023 157.286 234.783C157.496 234.543 157.73 234.345 157.988 234.189C158.246 234.033 158.519 233.919 158.807 233.847C159.101 233.775 159.398 233.739 159.698 233.739C160.178 233.739 160.604 233.817 160.976 233.973C161.354 234.123 161.672 234.345 161.93 234.639C162.194 234.933 162.395 235.296 162.533 235.728C162.671 236.154 162.74 236.643 162.74 237.195V243H161.138V237.195C161.138 236.481 160.982 235.941 160.67 235.575C160.358 235.203 159.905 235.017 159.311 235.017C159.047 235.017 158.795 235.065 158.555 235.161C158.321 235.251 158.114 235.386 157.934 235.566C157.754 235.746 157.61 235.974 157.502 236.25C157.4 236.52 157.349 236.835 157.349 237.195V243H155.747V237.195C155.747 236.463 155.6 235.917 155.306 235.557C155.012 235.197 154.583 235.017 154.019 235.017C153.623 235.017 153.254 235.125 152.912 235.341C152.576 235.551 152.267 235.839 151.985 236.205V243H150.383Z" fill="#777A95"/>
<path d="M168.775 233.739C169.321 233.739 169.825 233.832 170.287 234.018C170.749 234.198 171.148 234.462 171.484 234.81C171.82 235.152 172.081 235.578 172.267 236.088C172.459 236.592 172.555 237.168 172.555 237.816C172.555 238.068 172.528 238.236 172.474 238.32C172.42 238.404 172.318 238.446 172.168 238.446H166.102C166.114 239.022 166.192 239.523 166.336 239.949C166.48 240.375 166.678 240.732 166.93 241.02C167.182 241.302 167.482 241.515 167.83 241.659C168.178 241.797 168.568 241.866 169 241.866C169.402 241.866 169.747 241.821 170.035 241.731C170.329 241.635 170.581 241.533 170.791 241.425C171.001 241.317 171.175 241.218 171.313 241.128C171.457 241.032 171.58 240.984 171.682 240.984C171.814 240.984 171.916 241.035 171.988 241.137L172.438 241.722C172.24 241.962 172.003 242.172 171.727 242.352C171.451 242.526 171.154 242.67 170.836 242.784C170.524 242.898 170.2 242.982 169.864 243.036C169.528 243.096 169.195 243.126 168.865 243.126C168.235 243.126 167.653 243.021 167.119 242.811C166.591 242.595 166.132 242.283 165.742 241.875C165.358 241.461 165.058 240.951 164.842 240.345C164.626 239.739 164.518 239.043 164.518 238.257C164.518 237.621 164.614 237.027 164.806 236.475C165.004 235.923 165.286 235.446 165.652 235.044C166.018 234.636 166.465 234.318 166.993 234.09C167.521 233.856 168.115 233.739 168.775 233.739ZM168.811 234.918C168.037 234.918 167.428 235.143 166.984 235.593C166.54 236.037 166.264 236.655 166.156 237.447H171.115C171.115 237.075 171.064 236.736 170.962 236.43C170.86 236.118 170.71 235.851 170.512 235.629C170.314 235.401 170.071 235.227 169.783 235.107C169.501 234.981 169.177 234.918 168.811 234.918Z" fill="#777A95"/>
<path d="M174.605 243V233.883H175.559C175.787 233.883 175.931 233.994 175.991 234.216L176.117 235.206C176.513 234.768 176.954 234.414 177.44 234.144C177.932 233.874 178.499 233.739 179.141 233.739C179.639 233.739 180.077 233.823 180.455 233.991C180.839 234.153 181.157 234.387 181.409 234.693C181.667 234.993 181.862 235.356 181.994 235.782C182.126 236.208 182.192 236.679 182.192 237.195V243H180.59V237.195C180.59 236.505 180.431 235.971 180.113 235.593C179.801 235.209 179.321 235.017 178.673 235.017C178.199 235.017 177.755 235.131 177.341 235.359C176.933 235.587 176.555 235.896 176.207 236.286V243H174.605Z" fill="#777A95"/>
<path d="M187.37 243.144C186.65 243.144 186.095 242.943 185.705 242.541C185.321 242.139 185.129 241.56 185.129 240.804V235.224H184.031C183.935 235.224 183.854 235.197 183.788 235.143C183.722 235.083 183.689 234.993 183.689 234.873V234.234L185.183 234.045L185.552 231.228C185.564 231.138 185.603 231.066 185.669 231.012C185.735 230.952 185.819 230.922 185.921 230.922H186.731V234.063H189.341V235.224H186.731V240.696C186.731 241.08 186.824 241.365 187.01 241.551C187.196 241.737 187.436 241.83 187.73 241.83C187.898 241.83 188.042 241.809 188.162 241.767C188.288 241.719 188.396 241.668 188.486 241.614C188.576 241.56 188.651 241.512 188.711 241.47C188.777 241.422 188.834 241.398 188.882 241.398C188.966 241.398 189.041 241.449 189.107 241.551L189.575 242.316C189.299 242.574 188.966 242.778 188.576 242.928C188.186 243.072 187.784 243.144 187.37 243.144Z" fill="#777A95"/>
</svg>
