<svg width="30" height="38" viewBox="0 0 30 38" fill="none" xmlns="http://www.w3.org/2000/svg">
<path fill-rule="evenodd" clip-rule="evenodd" d="M30 14.769V15.2299C30 17.5405 28.1206 19.422 25.8079 19.422H19.423V25.8079C19.423 28.1206 17.5416 30 15.231 30H14.7701C12.4595 30 10.578 28.1206 10.578 25.8079V19.422H4.19207C1.88249 19.422 0 17.5405 0 15.2299V14.769C0 12.4595 1.88249 10.577 4.19207 10.577H10.578V4.19207C10.578 1.88147 12.4595 0 14.7701 0H15.231C17.5416 0 19.423 1.88147 19.423 4.19207V10.577H25.8079C28.1206 10.577 30 12.4595 30 14.769Z" fill="#009899"/>
<rect x="10" y="33" width="11" height="5" rx="2.5" fill="#009899"/>
</svg>
