<svg width="30" height="38" viewBox="0 0 30 38" fill="none" xmlns="http://www.w3.org/2000/svg">
<path d="M21.985 0H8.01667C2.95 0 0 2.67 0 7.245V22.74C0 27.39 2.95 30 8.01667 30H21.985C27.1333 30 30 27.39 30 22.74V7.245C30 2.67 27.1333 0 21.985 0Z" fill="#009899"/>
<path fill-rule="evenodd" clip-rule="evenodd" d="M8.80513 6.9751V6.9901C8.15863 6.9901 7.63513 7.5151 7.63513 8.1601C7.63513 8.8051 8.15863 9.3301 8.80513 9.3301H13.2886C13.9351 9.3301 14.4601 8.8051 14.4601 8.1436C14.4601 7.5001 13.9351 6.9751 13.2886 6.9751H8.80513ZM20.5651 16.1101H8.80513C8.15863 16.1101 7.63513 15.5851 7.63513 14.9401C7.63513 14.2951 8.15863 13.7686 8.80513 13.7686H20.5651C21.2101 13.7686 21.7351 14.2951 21.7351 14.9401C21.7351 15.5851 21.2101 16.1101 20.5651 16.1101ZM20.5651 22.965H8.80512C8.35512 23.025 7.92012 22.8 7.68012 22.425C7.44012 22.035 7.44012 21.54 7.68012 21.165C7.92012 20.775 8.35512 20.565 8.80512 20.61H20.5651C21.1636 20.67 21.6151 21.18 21.6151 21.795C21.6151 22.3935 21.1636 22.905 20.5651 22.965Z" fill="#D3EDED"/>
<rect x="10" y="33" width="11" height="5" rx="2.5" fill="#009899"/>
</svg>
