<svg width="24" height="20" viewBox="0 0 24 20" fill="none" xmlns="http://www.w3.org/2000/svg">
<path d="M8.35834 2.72389C8.73314 2.72389 9.037 2.42004 9.037 2.04524V0.678655C9.037 0.303856 8.73314 0 8.35834 0C7.98354 0 7.67969 0.303856 7.67969 0.678655V2.04524C7.67969 2.42004 7.98354 2.72389 8.35834 2.72389Z" fill="#A0A2B3"/>
<path d="M2.20161 5.2081L1.01808 4.52479C0.693453 4.3373 0.278388 4.4486 0.0910337 4.77318C-0.0963656 5.0978 0.0148433 5.51287 0.339421 5.70022L1.52295 6.38353C1.8468 6.57057 2.26219 6.46049 2.44999 6.13515C2.63739 5.81052 2.52618 5.39546 2.20161 5.2081Z" fill="#A0A2B3"/>
<path d="M1.52292 12.7093L0.33939 13.3925C-0.259636 13.7383 -0.0136912 14.659 0.679351 14.659C0.986872 14.659 1.06456 14.5104 2.20153 13.8847C2.52611 13.6973 2.63732 13.2823 2.44992 12.9576C2.26256 12.6331 1.84759 12.5217 1.52292 12.7093Z" fill="#A0A2B3"/>
<path d="M15.1939 6.38353L16.3774 5.70022C16.702 5.51282 16.8132 5.0978 16.6258 4.77318C16.4384 4.4486 16.0234 4.3373 15.6987 4.52479L14.5152 5.2081C14.1906 5.3955 14.0794 5.81052 14.2668 6.13515C14.4552 6.46135 14.8708 6.57012 15.1939 6.38353Z" fill="#A0A2B3"/>
<path d="M6.98674 11.2646C7.49044 8.50504 9.71371 6.39125 12.4891 6.02722C11.4925 4.85917 10.0106 4.11713 8.35839 4.11713C5.36471 4.11713 2.9292 6.55268 2.9292 9.54637C2.9292 10.9762 3.48502 12.2784 4.39166 13.249C5.01932 12.3279 5.93546 11.625 6.98674 11.2646Z" fill="#A0A2B3"/>
<path d="M18.048 10.5098C17.2795 8.61071 15.4169 7.32941 13.3288 7.32941C10.5291 7.32941 8.26916 9.58553 8.23957 12.3676C6.31196 12.579 4.8457 14.2319 4.8457 16.171C4.8457 18.281 6.56229 19.9976 8.67223 19.9976C19.3503 19.9865 18.766 20.0249 18.952 19.9672C21.3239 19.6997 23.1648 17.6879 23.1648 15.2471C23.1648 12.4598 20.7831 10.2956 18.048 10.5098Z" fill="#A0A2B3"/>
</svg>
