<svg width="36" height="30" viewBox="0 0 36 30" fill="none" xmlns="http://www.w3.org/2000/svg">
<path d="M1.11596 15.1557H12.4623L14.2462 6.7513C14.3369 6.3245 14.7168 6.02146 15.1554 6.03485C15.5916 6.04643 15.9572 6.36792 16.0249 6.79888L17.5106 16.2694L18.438 13.3135C18.546 12.9694 18.848 12.7223 19.2066 12.6846C19.5652 12.647 19.912 12.8258 20.0891 13.14L21.391 15.4495L34.1176 15.3509C34.6266 14.3605 35.0014 13.2755 35.1865 12.0773C35.7025 8.74018 34.8401 5.3828 32.88 3.09612C31.1435 1.07052 28.6748 0 25.7409 0C21.1884 0 18.6017 3.05704 17.6666 4.43604C16.7315 3.05704 14.1447 0 9.59217 0C6.65834 0 4.18965 1.07052 2.45316 3.09612C0.493225 5.38262 -0.369232 8.74018 0.146759 12.0773C0.319902 13.1968 0.657322 14.2183 1.11596 15.1557Z" fill="#009899"/>
<path d="M20.872 17.2627C20.5467 17.2574 20.2386 17.089 20.077 16.8024L19.539 15.848L18.0793 20.5003C17.9602 20.8795 17.6091 21.1341 17.2166 21.1341C17.1942 21.1341 17.1718 21.1333 17.1492 21.1315C16.7301 21.1004 16.3877 20.7847 16.3225 20.3697L14.9976 11.9249L14.08 16.2482C13.9913 16.6662 13.6223 16.9651 13.1951 16.9651H2.21692C4.36736 19.8982 7.69525 21.8737 10.3577 23.4522C11.6627 24.226 12.8953 24.9569 13.7525 25.6562C16.9178 28.2383 17.2074 29.5412 17.2181 29.5954C17.246 29.8214 17.437 30 17.6661 30C17.8998 30 18.0943 29.8299 18.1155 29.5971C18.1176 29.5842 18.3633 28.2814 21.5814 25.6562C22.4386 24.9569 23.6712 24.226 24.9762 23.4522C27.5764 21.9104 30.8119 19.9904 32.9648 17.1691L20.872 17.2627Z" fill="#009899"/>
</svg>
