<svg width="32" height="32" viewBox="0 0 32 32" fill="none" xmlns="http://www.w3.org/2000/svg">
<path fill-rule="evenodd" clip-rule="evenodd" d="M21.1331 3.33432C21.9744 3.33432 22.8144 3.45299 23.6131 3.72099C28.5344 5.32099 30.3077 10.721 28.8264 15.441C27.9864 17.853 26.6131 20.0543 24.8144 21.853C22.2397 24.3463 19.4144 26.5597 16.3731 28.4663L16.0397 28.6677L15.6931 28.453C12.6411 26.5597 9.79974 24.3463 7.20107 21.8397C5.4144 20.041 4.03974 17.853 3.1864 15.441C1.67974 10.721 3.45307 5.32099 8.42774 3.69299C8.8144 3.55965 9.21307 3.46632 9.61307 3.41432H9.77307C10.1477 3.35965 10.5197 3.33432 10.8931 3.33432H11.0397C11.8797 3.35965 12.6931 3.50632 13.4811 3.77432H13.5597C13.6131 3.79965 13.6531 3.82765 13.6797 3.85299C13.9744 3.94765 14.2531 4.05432 14.5197 4.20099L15.0264 4.42765C15.1488 4.49295 15.2863 4.59272 15.405 4.67895C15.4803 4.73358 15.548 4.78277 15.5997 4.81432C15.6215 4.82716 15.6436 4.84007 15.6659 4.85308C15.7802 4.91982 15.8993 4.98933 15.9997 5.06632C17.4811 3.93432 19.2797 3.32099 21.1331 3.33432ZM24.6797 12.9343C25.2264 12.9197 25.6931 12.481 25.7331 11.9197V11.761C25.7731 9.89299 24.6411 8.20099 22.9197 7.54765C22.3731 7.35965 21.7731 7.65432 21.5731 8.21432C21.3864 8.77432 21.6797 9.38765 22.2397 9.58632C23.0944 9.90632 23.6664 10.7477 23.6664 11.6797V11.721C23.6411 12.0263 23.7331 12.321 23.9197 12.5477C24.1064 12.7743 24.3864 12.9063 24.6797 12.9343Z" fill="white"/>
</svg>
