<svg width="30" height="30" viewBox="0 0 30 30" fill="none" xmlns="http://www.w3.org/2000/svg">
<path d="M14.5898 1.32422C14.4785 1.37109 11.209 3.72656 7.32422 6.55078C0.896487 11.2266 0.251956 11.7129 0.128909 11.9531C-0.181638 12.5508 0.169925 13.4004 0.832034 13.6758C1.00782 13.752 1.3125 13.7695 2.40235 13.7695H3.75V20.7891V27.8086L3.90235 28.1133C4.01367 28.3418 4.125 28.459 4.32422 28.582L4.59961 28.7402H15H25.4004L25.6758 28.582C25.875 28.459 25.9863 28.3418 26.0977 28.1133L26.25 27.8086V20.7891V13.7695H27.5977C28.6875 13.7695 28.9922 13.752 29.168 13.6758C29.8301 13.4004 30.1816 12.5508 29.8711 11.9531C29.7481 11.7129 29.1035 11.2266 22.6758 6.55078C18.791 3.72656 15.5156 1.37109 15.3926 1.31836C15.123 1.20703 14.8594 1.20703 14.5898 1.32422ZM16.4766 11.4316C20.0859 12.1465 22.7168 15.5449 22.4766 19.1777C22.2539 22.6113 19.8398 25.3887 16.4648 26.1152C15.7676 26.2617 14.2324 26.2617 13.5352 26.1152C11.6191 25.7051 10.0371 24.6738 8.90039 23.0859C6.80274 20.168 7.11328 16.1309 9.63282 13.5645C11.4609 11.7012 13.9395 10.9336 16.4766 11.4316Z" fill="#777A95"/>
<path d="M13.125 15V16.875H11.25H9.375V18.75V20.625H11.25H13.125V22.5V24.375H15H16.875V22.5V20.625H18.75H20.625V18.75V16.875H18.75H16.875V15V13.125H15H13.125V15Z" fill="#DADBE4"/>
</svg>
