<svg width="28" height="28" viewBox="0 0 28 28" fill="none" xmlns="http://www.w3.org/2000/svg">
<g clip-path="url(#clip0_125_181)">
<path d="M27.5297 12.5172L14.9671 1.07012C14.4157 0.567593 13.5841 0.567648 13.0329 1.07006L0.470205 12.5172C0.0284945 12.9197 -0.117411 13.5399 0.098385 14.0971C0.314236 14.6543 0.839782 15.0143 1.43735 15.0143H3.44383V26.4834C3.44383 26.9381 3.81253 27.3068 4.26726 27.3068H11.1532C11.6079 27.3068 11.9766 26.9382 11.9766 26.4834V19.5197H16.0236V26.4835C16.0236 26.9382 16.3923 27.3069 16.847 27.3069H23.7326C24.1873 27.3069 24.556 26.9382 24.556 26.4835V15.0143H26.5629C27.1604 15.0143 27.686 14.6542 27.9018 14.0971C28.1174 13.5398 27.9715 12.9197 27.5297 12.5172Z" fill="#009899"/>
<path d="M24.341 2.33679H18.811L25.1644 8.11375V3.16017C25.1644 2.70544 24.7957 2.33679 24.341 2.33679Z" fill="#009899"/>
</g>
<defs>
<clipPath id="clip0_125_181">
<rect width="28" height="28" fill="white"/>
</clipPath>
</defs>
</svg>
