<svg width="72" height="72" viewBox="0 0 72 72" fill="none" xmlns="http://www.w3.org/2000/svg">
<circle cx="36.01" cy="36.5" r="20.5" fill="#FFA800"/>
<path d="M63.1791 25.9135C60.8344 19.5953 56.3617 14.2914 50.5301 10.9136C44.6984 7.5359 37.8722 6.29537 31.225 7.40535L32.18 13.1243C37.4977 12.2363 42.9587 13.2287 47.624 15.9309C52.2893 18.6331 55.8675 22.8762 57.7432 27.9308L63.1791 25.9135Z" fill="#FFA800"/>
<path d="M46.6539 62.9618C52.9216 60.4852 58.1306 55.9023 61.3853 50.0011C64.6401 44.0999 65.7372 37.2492 64.4881 30.6267L58.7905 31.7014C59.7898 36.9993 58.912 42.4799 56.3082 47.2009C53.7044 51.9218 49.5372 55.5881 44.5231 57.5694L46.6539 62.9618Z" fill="#FFA800"/>
<path d="M8.96134 46.4583C11.3925 52.7437 15.9376 57.9858 21.815 61.2832C27.6925 64.5806 34.5351 65.7274 41.1664 64.5263L40.1331 58.821C34.828 59.7819 29.3539 58.8645 24.6519 56.2265C19.95 53.5886 16.314 49.395 14.369 44.3666L8.96134 46.4583Z" fill="#FFA800"/>
<path d="M25.7559 8.87966C19.4514 11.261 14.1736 15.7645 10.8297 21.6156C7.48592 27.4668 6.28507 34.3001 7.43364 40.9407L13.1469 39.9526C12.2281 34.6401 13.1887 29.1734 15.8638 24.4925C18.5388 19.8115 22.7611 16.2088 27.8047 14.3037L25.7559 8.87966Z" fill="#FFA800"/>
<path d="M33 28L39.8421 35.1053L33 42.2106" stroke="white" stroke-width="3" stroke-linecap="round" stroke-linejoin="round"/>
</svg>
