<svg width="22" height="22" viewBox="0 0 22 22" fill="none" xmlns="http://www.w3.org/2000/svg">
<g clip-path="url(#clip0_224_948)">
<path d="M1.37511 0.0601559C0.743466 0.236328 0.227841 0.75625 0.0602628 1.39219C0.0129972 1.57266 0.000106534 3.04219 0.000106534 10.0762C0.000106534 19.3445 -0.0127841 18.8031 0.245028 19.25C0.404013 19.5164 0.721982 19.8258 0.9712 19.9504C1.08722 20.0062 2.47511 20.4875 4.06065 21.016L6.93956 21.9785H7.32628C7.79893 21.9785 8.06534 21.8926 8.42198 21.6305C8.70987 21.4199 8.9419 21.102 9.06651 20.741C9.13526 20.5434 9.15245 20.3887 9.15245 19.873V19.25H10.6692C12.3966 19.25 12.5685 19.2285 13.1485 18.9449C13.8446 18.6055 14.4075 17.8965 14.5837 17.1445C14.6825 16.7277 14.6825 12.7059 14.588 12.4695C14.3001 11.782 13.3032 11.7391 12.9423 12.3965C12.8778 12.5082 12.865 12.7789 12.8478 14.6309L12.8263 16.7363L12.7189 16.9297C12.6587 17.0328 12.5255 17.1789 12.4267 17.252L12.2376 17.3809L10.695 17.3937L9.15245 17.4066L9.14386 10.3039L9.13097 3.20117L8.99347 2.91328C8.77003 2.44062 8.46925 2.16133 7.95362 1.94648L7.713 1.84766L9.97745 1.86055L12.2376 1.86914L12.4267 1.99805C12.5255 2.07109 12.6587 2.21719 12.7189 2.32031L12.8263 2.51367L12.8478 4.16797C12.8692 5.78789 12.8692 5.82656 12.9638 5.97695C13.0196 6.06289 13.1442 6.1875 13.2431 6.25625C13.4021 6.36797 13.4579 6.38086 13.7501 6.38086C14.038 6.38086 14.0982 6.36797 14.2485 6.26484C14.3388 6.20039 14.4634 6.07578 14.5235 5.98555L14.631 5.82656L14.6439 4.1207C14.6567 2.1957 14.6439 2.07969 14.3603 1.50391C14.1282 1.03125 13.6384 0.545702 13.1485 0.305079C12.4954 -0.0128918 12.8048 0 6.87511 0.00429726C2.763 0.00859261 1.5255 0.0214844 1.37511 0.0601559Z" fill="#F21D52"/>
<path d="M17.0372 4.6793C16.8181 4.77812 16.6032 5.01875 16.5474 5.2293C16.5173 5.32812 16.5001 5.95547 16.5001 6.81914V8.25H14.5751H12.6501L12.4224 8.36172C12.0357 8.55508 11.8466 8.96328 11.9497 9.38438C12.0185 9.67227 12.315 9.97734 12.5985 10.0461C12.736 10.0805 13.3763 10.0977 14.6482 10.0977H16.5001V11.5199C16.5001 12.5254 16.5173 12.998 16.5517 13.1227C16.6591 13.4707 17.0587 13.75 17.4497 13.75C17.7935 13.7457 17.9095 13.6469 19.886 11.6746C21.8669 9.69805 22.0001 9.53906 22.0001 9.20391C22.0001 8.7957 22.0259 8.82578 19.9419 6.7332C18.6485 5.43984 17.9224 4.73945 17.8064 4.68359C17.5872 4.57617 17.265 4.57617 17.0372 4.6793Z" fill="#F21D52"/>
</g>
<defs>
<clipPath id="clip0_224_948">
<rect width="22" height="22" fill="white"/>
</clipPath>
</defs>
</svg>
