<svg width="29" height="26" viewBox="0 0 29 26" fill="none" xmlns="http://www.w3.org/2000/svg">
<path d="M18.1676 0.254883H3.16764C1.79443 0.254883 0.686035 1.37598 0.686035 2.76492V12.8051C0.686035 14.1939 1.79443 15.3151 3.16764 15.3151H3.99484V17.8251C3.99484 18.4296 4.61364 18.8674 5.2191 18.5614C5.23564 18.5447 5.26879 18.5447 5.28533 18.5279C9.83582 15.4414 8.81599 16.1296 9.83494 15.4489C9.96723 15.3652 10.1161 15.3151 10.2816 15.3151H18.1676C19.5408 15.3151 20.6492 14.1939 20.6492 12.8051V2.76492C20.6492 1.37598 19.5408 0.254883 18.1676 0.254883ZM11.5499 10.295H4.82204C3.73162 10.295 3.72716 8.62167 4.82204 8.62167H11.5499C12.6404 8.62167 12.6448 10.295 11.5499 10.295ZM16.5132 6.94831H4.82204C3.73162 6.94831 3.72716 5.27495 4.82204 5.27495H16.5132C17.6036 5.27495 17.608 6.94831 16.5132 6.94831Z" fill="white"/>
<path d="M26.44 6.94849H22.304V12.8052C22.304 15.1145 20.4511 16.9886 18.168 16.9886H10.5302L8.9585 18.0428V19.4987C8.9585 20.8875 10.0669 22.0087 11.4401 22.0087H19.5742L24.3223 25.2215C24.9704 25.5854 25.6128 25.1428 25.6128 24.5187V22.0087H26.44C27.8132 22.0087 28.9216 20.8875 28.9216 19.4987V9.45852C28.9216 8.06964 27.8132 6.94849 26.44 6.94849Z" fill="white"/>
</svg>
