<svg width="25" height="22" viewBox="0 0 25 22" fill="none" xmlns="http://www.w3.org/2000/svg">
<path d="M15.3237 0H2.1753C0.971584 0 0 0.982715 0 2.20022V11.0011C0 12.2185 0.971584 13.2013 2.1753 13.2013H2.90039V15.4015C2.90039 15.9314 3.44282 16.3151 3.97354 16.0469C3.98804 16.0323 4.01709 16.0323 4.0316 16.0175C8.02041 13.312 7.12646 13.9153 8.01964 13.3186C8.13561 13.2453 8.26612 13.2013 8.41114 13.2013H15.3237C16.5275 13.2013 17.499 12.2185 17.499 11.0011V2.20022C17.499 0.982715 16.5275 0 15.3237 0ZM9.52296 8.80087H3.62549C2.66967 8.80087 2.66575 7.33406 3.62549 7.33406H9.52296C10.4788 7.33406 10.4827 8.80087 9.52296 8.80087ZM13.8736 5.86725H3.62549C2.66967 5.86725 2.66575 4.40044 3.62549 4.40044H13.8736C14.8294 4.40044 14.8333 5.86725 13.8736 5.86725Z" fill="#009899"/>
<path d="M22.5747 5.86719H18.9492V11.001C18.9492 13.0252 17.325 14.6681 15.3237 14.6681H8.62866L7.25098 15.5922V16.8683C7.25098 18.0857 8.22256 19.0685 9.42627 19.0685H16.5564L20.7184 21.8847C21.2865 22.2038 21.8496 21.8158 21.8496 21.2687V19.0685H22.5747C23.7784 19.0685 24.75 18.0857 24.75 16.8683V8.06741C24.75 6.84995 23.7784 5.86719 22.5747 5.86719Z" fill="#009899"/>
</svg>
