<svg width="23" height="25" viewBox="0 0 23 25" fill="none" xmlns="http://www.w3.org/2000/svg">
<path d="M0.852355 14.8905V14.6349C0.895999 13.8163 1.15432 13.0234 1.60168 12.3346C2.34763 11.4988 2.86044 10.4836 3.08914 9.38988C3.14506 8.55646 3.08914 7.70081 3.14506 6.85628C3.54768 2.8003 7.56271 0 11.41 0H11.5218C15.4362 0 19.3506 2.8003 19.7756 6.85628C19.8539 7.6897 19.7756 8.55646 19.8427 9.38988C20.0658 10.4855 20.5793 11.5021 21.3301 12.3346C21.7969 13.0155 22.0641 13.8119 22.1018 14.6349V14.8905C22.1087 15.9991 21.7114 17.0728 20.9834 17.913C20.0495 18.9092 18.7799 19.53 17.4158 19.6576C13.4322 20.1688 9.39898 20.1688 5.4154 19.6576C4.06709 19.5195 2.81516 18.8996 1.89246 17.913C1.18729 17.0647 0.817503 15.9901 0.852355 14.8905Z" fill="#009899"/>
<path opacity="0.4" d="M12.931 21.3689C12.1369 21.3134 11.4882 21.3689 10.8396 21.3689C10.1963 21.3578 9.55399 21.425 8.92711 21.569C8.39028 21.6912 7.80872 21.9801 7.80872 22.5913C7.86504 23.182 8.18526 23.7163 8.68106 24.047C9.63613 24.7764 10.8397 25.1072 12.0362 24.9693C13.1993 24.8835 14.2624 24.284 14.9329 23.3358C15.3035 22.8554 15.2189 22.1687 14.7428 21.7912C14.1789 21.5156 13.5593 21.3712 12.931 21.3689Z" fill="#009899"/>
</svg>
