<svg width="12" height="12" viewBox="0 0 12 12" fill="none" xmlns="http://www.w3.org/2000/svg">
<path d="M8.56238 4.94287C9.71402 5.10418 10.6411 5.17907 11.3378 5.17907C11.5854 5.17907 11.8042 5.16755 12 5.15026L10.8484 7.61018C10.048 7.77724 9.10365 7.89246 8.02112 7.95583C7.80231 9.36726 7.6929 10.4791 7.6929 11.2856C7.6929 11.5564 7.70442 11.7984 7.73321 12L5.27447 10.8478C5.10748 10.047 4.99232 9.10226 4.92898 8.0192C3.45489 7.9904 1.81382 7.90975 0 7.76572C0.598848 6.4868 1.6929 5.2194 3.27639 3.96927C3.82918 4.08449 4.36469 4.19395 4.87716 4.29765C4.90595 2.99568 4.98657 1.56121 5.10749 0C6.3858 0.599136 7.65259 1.69371 8.90211 3.27796C8.78119 3.85982 8.66603 4.41863 8.56238 4.94287Z" fill="#009899"/>
</svg>
