<svg width="6" height="6" viewBox="0 0 6 6" fill="none" xmlns="http://www.w3.org/2000/svg">
<g opacity="0.3">
<path d="M4.28119 2.47144C4.85701 2.55209 5.32054 2.58953 5.66891 2.58953C5.79271 2.58953 5.90211 2.58377 6 2.57513L5.42418 3.80509C5.02399 3.88862 4.55182 3.94623 4.01056 3.97792C3.90115 4.68363 3.84645 5.23956 3.84645 5.64282C3.84645 5.7782 3.85221 5.89918 3.8666 6L2.63724 5.42391C2.55374 5.02352 2.49616 4.55113 2.46449 4.0096C1.72745 3.9952 0.90691 3.95487 0 3.88286C0.299424 3.2434 0.84645 2.6097 1.6382 1.98464C1.91459 2.04225 2.18234 2.09698 2.43858 2.14882C2.45298 1.49784 2.49328 0.780605 2.55374 0C3.1929 0.299568 3.8263 0.846856 4.45106 1.63898C4.3906 1.92991 4.33301 2.20931 4.28119 2.47144Z" fill="#009899"/>
</g>
</svg>
