<svg width="341" height="220" viewBox="0 0 341 220" fill="none" xmlns="http://www.w3.org/2000/svg">
<g clip-path="url(#clip0_211_1088)">
<path opacity="0.1" d="M2.0524 204.764C31.3242 192.747 60.1244 144.614 46.6774 105.34C23.3437 37.1853 113.891 -4.11898 162.243 44.126C192.917 74.7331 267.108 27.043 302.063 79.0033C320.743 106.77 293.744 151.027 294.868 172.499C295.93 192.815 323.046 204.764 323.046 204.764H2.0524Z" fill="#009899"/>
<path d="M340.446 205.07H0.621168C0.316096 205.07 0.0683594 204.823 0.0683594 204.519C0.0683594 204.214 0.316096 203.967 0.621168 203.967H340.446C340.751 203.967 340.999 204.214 340.999 204.519C341 204.823 340.752 205.07 340.446 205.07Z" fill="black"/>
<path d="M261.404 111.251L254.932 118.385L243.583 106.1L251.264 103.18L261.404 111.251Z" fill="#FFA46E"/>
<path d="M253.335 113.204L252.941 113.409L249.021 115.45C247.964 116.014 246.649 115.617 246.083 114.565C242.736 106.156 238.771 98.4219 233.834 91.7468C233.269 90.6932 233.666 89.3817 234.722 88.8172L238.818 86.6832L239.036 86.5698C240.092 86.0053 241.407 86.4025 241.973 87.456C246.843 94.4076 250.876 102.055 254.222 110.272C254.788 111.328 254.39 112.639 253.335 113.204Z" fill="#545454"/>
<path d="M242.373 93.2375L237.377 95.8475C236.418 96.3602 235.225 95.9997 234.712 95.0433L233.001 91.8558C232.487 90.8994 232.848 89.7088 233.807 89.1972L238.803 86.5871C239.761 86.0744 240.955 86.4349 241.467 87.3913L243.179 90.5788C243.692 91.5341 243.331 92.7247 242.373 93.2375Z" fill="#333333"/>
<path d="M241.275 93.2537L237.356 95.2884C236.53 95.7299 235.502 95.4201 235.06 94.5954L233.518 91.7242C233.076 90.8995 233.386 89.874 234.213 89.4325L238.131 87.3978C238.957 86.9563 239.985 87.2661 240.428 88.0908L241.969 90.9621C242.412 91.7857 242.1 92.8122 241.275 93.2537Z" fill="#6E6E6E"/>
<path d="M253.113 113.243L248.117 115.853C247.159 116.365 245.966 116.005 245.453 115.048L243.741 111.861C243.227 110.905 243.589 109.714 244.547 109.202L249.543 106.592C250.502 106.08 251.695 106.44 252.208 107.396L253.919 110.584C254.432 111.539 254.072 112.73 253.113 113.243Z" fill="#333333"/>
<path d="M252.052 113.329L248.134 115.364C247.307 115.805 246.279 115.495 245.837 114.671L244.295 111.799C243.853 110.975 244.163 109.949 244.99 109.508L248.908 107.473C249.735 107.032 250.762 107.341 251.205 108.166L252.746 111.037C253.189 111.861 252.878 112.887 252.052 113.329Z" fill="#6E6E6E"/>
<path d="M243.768 109.308C243.378 109.222 239.814 107.141 242.943 101.678C245.203 101.504 245.446 104.396 245.029 105.146C243.725 107.487 243.768 109.308 243.768 109.308Z" fill="#FFA46E"/>
<path d="M253.335 113.204L252.941 113.409C253.027 113.199 253.26 112.623 253.492 111.955C253.786 111.113 250.041 105.36 250.041 105.36C250.041 105.36 246.038 104.81 244.165 101.145C242.293 97.4819 243.761 93.964 243.761 93.964C243.761 93.964 241.816 90.5573 240.934 88.6155C240.437 87.5231 239.523 86.9639 238.818 86.6822L239.036 86.5689C240.092 86.0043 241.407 86.4016 241.973 87.4551C246.843 94.4066 250.876 102.054 254.222 110.271C254.788 111.328 254.39 112.639 253.335 113.204Z" fill="#333333"/>
<path d="M248.157 104.452C249.212 105.005 250.341 104.237 251.286 104.452C251.773 104.563 251.863 105.298 252.286 105.579C254.415 102.587 250.311 94.9775 246.763 93.3346C246.532 93.2278 244.091 93.462 244.218 97.2065C244.297 99.5554 247.103 103.898 248.157 104.452Z" fill="#FFA46E"/>
<path d="M290.817 135.317C290.815 135.319 290.816 135.322 290.814 135.326C290.712 135.89 290.546 136.446 290.308 136.986C289.2 139.514 286.546 141.674 281.615 142.497C273.969 143.076 262.78 143.547 252.824 144.257C249.963 144.461 247.203 144.685 244.659 144.937C234.127 142.225 227.806 126.168 240.151 122.762C241.547 122.377 247.333 122.266 254.423 122.451C267.315 122.787 284.518 124.101 287.486 126.519C289.826 128.425 291.417 131.998 290.817 135.317Z" fill="white"/>
<path d="M236.52 124.077C230.215 129.149 221.297 130.486 214.671 124.505C214.735 121.188 215.656 111.301 215.431 108.075L235.985 110.841C236.143 114.73 236.362 120.171 236.52 124.077Z" fill="#FFA46E"/>
<path d="M236.044 111.724C236.032 111.427 236.021 111.123 236.011 110.841H220.833L216.245 111.805C216.245 111.805 222.751 122.522 236.492 124.099C236.329 119.578 236.129 114.023 236.044 111.724Z" fill="#D46C42"/>
<path d="M239.035 97.8575C240.431 97.7882 241.491 96.3013 241.403 94.5364C241.315 92.7715 240.112 91.397 238.716 91.4663C237.32 91.5356 236.26 93.0225 236.348 94.7874C236.436 96.5522 237.639 97.9268 239.035 97.8575Z" fill="#FFA46E"/>
<path d="M237.041 84.9445C236.939 85.2921 241.366 101.177 240.818 105.144C236.199 117.03 228.388 121.271 215.692 112.223C213.821 110.053 208.027 97.9764 207.926 97.862C199.491 81.554 230.729 67.8356 237.041 84.9445Z" fill="#FFA46E"/>
<path d="M234.063 81.2635C236.785 81.8993 237.736 89.2156 238.525 91.4468L238.674 91.0237C239.36 60.5515 188.58 75.7541 209.309 100.6C210.811 101.516 212.427 104.528 213.334 106.707C213.09 105.225 214.838 100.701 214.225 97.3502C214.225 97.3502 210.621 92.808 211.727 88.4449C212.405 85.7712 218.145 86.5861 223.031 84.8116C228.004 83.0046 232.107 80.5273 234.063 81.2635Z" fill="black"/>
<path d="M222.249 97.2359C222.861 98.9241 221.113 99.5642 220.487 97.8814C219.874 96.1921 221.622 95.552 222.249 97.2359Z" fill="black"/>
<path d="M235.973 92.2705C236.585 93.9587 234.837 94.5988 234.21 92.916C233.598 91.2278 235.345 90.5877 235.973 92.2705Z" fill="black"/>
<path d="M232.099 103.706C235.524 102.617 230.633 98.678 229.624 97.6601L228.797 95.4128C228.742 95.2638 228.576 95.1872 228.426 95.2412C228.277 95.2962 228.2 95.4614 228.254 95.6114L229.131 97.9958C230.692 99.3527 232.903 101.694 232.751 102.473C232.388 103.76 229.121 103.205 229.245 103.809C229.221 104.382 231.045 104.018 232.099 103.706Z" fill="#C75038"/>
<path d="M232.056 109.044C232.96 108.712 233.564 108.445 233.651 108.405C233.992 108.257 233.755 107.72 233.414 107.879C233.334 107.915 225.408 111.431 222.304 109.121C222.176 109.026 221.996 109.052 221.899 109.18C223.165 111.825 229.895 109.85 232.056 109.044Z" fill="#C75038"/>
<path d="M218.075 96.0085C215.507 95.9081 219.845 92.0135 222.391 92.9785C222.703 93.0411 222.905 93.3455 222.842 93.6575C222.778 93.9694 222.474 94.1713 222.161 94.1076C219.201 93.6618 218.687 95.7289 218.075 96.0085Z" fill="black"/>
<path d="M231.542 90.9212C229.301 91.0107 232.384 87.2489 235.922 88.0682C236.235 88.1319 236.437 88.4352 236.373 88.7472C236.309 89.0591 236.004 89.261 235.693 89.1973C232.74 88.7386 232.121 90.6567 231.542 90.9212Z" fill="black"/>
<path d="M205.025 84.6077C205.025 84.6077 210.923 71.8132 222.811 68.6268C234.699 65.4403 232.181 72.9725 232.181 72.9725C244.677 71.0198 225.698 84.6379 220.691 85.6482C216.171 86.8874 204.747 88.3468 205.025 84.6077Z" fill="black"/>
<path d="M214.013 107.192C215.624 105.96 215.662 103.31 214.098 101.272C212.533 99.2348 209.959 98.5812 208.348 99.8127C206.737 101.044 206.699 103.694 208.263 105.732C209.828 107.77 212.402 108.423 214.013 107.192Z" fill="#FFA46E"/>
<path d="M212.528 105.808C212.376 105.863 212.204 105.799 212.127 105.653C210.947 103.414 210.059 103.003 209.634 102.957C209.195 102.909 208.942 103.202 208.932 103.214C208.817 103.35 208.611 103.37 208.474 103.257C208.337 103.144 208.314 102.943 208.425 102.803C208.444 102.78 208.895 102.231 209.685 102.307C210.674 102.402 211.691 103.425 212.705 105.35C212.788 105.509 212.728 105.705 212.569 105.789C212.554 105.797 212.541 105.803 212.528 105.808Z" fill="#C75038"/>
<path d="M195.279 210.267C195.01 213.418 194.733 216.711 194.466 219.999H245.303L245.669 124.486C243.068 123.937 239.575 122.592 236.044 122.3C233.826 124.674 232.494 126.332 228.72 126.416C226.387 126.467 222.938 125.265 220.675 122.107C202.564 123.887 193.161 130.215 193.161 130.215L201.513 188.088C201.513 188.088 196.295 198.409 195.279 210.267Z" fill="#CCE4E6"/>
<path d="M256.506 220L256.06 215.485C241.487 219.748 210.704 220.702 195.154 215.485C195.019 217.048 194.884 218.549 194.749 220H256.506Z" fill="#204F63"/>
<path d="M230.952 134.541L234.243 130.302L228.927 126.536L223.232 130.158L226.597 134.541H230.952Z" fill="#009899"/>
<path d="M240.048 196.145L233.445 206.987L227.114 196.488C228.624 177.14 227.933 152.165 226.64 131.813L231.141 131.843C235.402 152.544 238.952 177.053 240.048 196.145Z" fill="#009899"/>
<path d="M238.786 122.634L236.436 120.195C236.236 122.673 231.636 125.882 228.927 126.537C231.363 128.607 233.244 130.176 235.694 133.946L238.786 122.634Z" fill="#10BBBC"/>
<path d="M211.768 123.016L215.303 118.566C215.303 118.566 222.389 123.851 228.926 126.536C225.998 128.736 224.662 131 222.907 133.945L211.768 123.016Z" fill="#10BBBC"/>
<path d="M191.049 220H219.644C223.472 186.499 219.667 154.144 211.362 123.232C195.617 125.578 193.035 130.216 193.035 130.216L199.835 189.37L191.049 220Z" fill="white"/>
<path d="M243.514 220H258.305L254.459 178.293L251.912 127.028C244.695 123.579 242.406 123.195 238.551 122.394C243.829 156.511 245.669 188.854 243.514 220Z" fill="white"/>
<path d="M220.21 201.848C220.224 201.845 220.237 201.842 220.251 201.839C223.572 201.037 221.06 184.106 221.06 184.106C215.97 185.175 210.393 201.839 210.393 201.839C210.393 201.839 210.421 201.842 210.473 201.848H220.21Z" fill="#276C9C"/>
<path d="M209.145 145.294L200.879 173.035L220.731 184.468C212.22 186.925 209.129 195.413 205.62 203.437L181.581 184.275L196.344 139.368L209.145 145.294Z" fill="#DEEDEE"/>
<path d="M237.052 202.045L217.915 201.992L212.775 201.977C211.519 199.297 210.836 196.405 214.117 192.041C214.117 192.041 214.927 191.964 216.17 191.856C219.002 191.61 224.084 191.204 226.947 191.188C233.594 191.15 237.052 202.045 237.052 202.045Z" fill="#FFA46E"/>
<path d="M217.915 201.991L212.775 201.976C211.519 199.296 210.836 196.404 214.117 192.04C214.117 192.04 214.927 191.963 216.17 191.855C215.904 193.55 215.299 198.983 217.915 201.991Z" fill="#D17743"/>
<path d="M227.505 191.224C227.709 191.224 233.473 190.886 235.439 192.374C237.406 193.863 239.237 197.314 239.237 197.314C239.237 197.314 238.898 198.059 237.27 197.517C235.643 196.976 234.083 194.472 234.083 194.472L228.251 194.066L227.505 191.224Z" fill="#FFA46E"/>
<path d="M234.677 202.069C234.649 202.069 234.623 202.048 234.617 202.019C233.443 195.948 228.433 194.621 228.383 194.608C228.35 194.599 228.33 194.567 228.338 194.534C228.347 194.502 228.38 194.481 228.412 194.49C228.463 194.503 233.548 195.85 234.736 201.996C234.743 202.03 234.721 202.061 234.688 202.068C234.684 202.068 234.681 202.069 234.677 202.069Z" fill="#D66D2D"/>
<path d="M232.083 202.033C232.058 202.033 232.035 202.018 232.025 201.994C231.034 199.457 226.508 197.695 226.463 197.678C226.431 197.666 226.415 197.63 226.428 197.599C226.44 197.568 226.475 197.552 226.507 197.564C226.553 197.582 231.129 199.363 232.14 201.95C232.152 201.981 232.137 202.017 232.105 202.029C232.098 202.032 232.09 202.033 232.083 202.033Z" fill="#D66D2D"/>
<path d="M193.035 130.487C192.621 130.614 162.865 174.311 171.909 188.019C175.191 192.994 213.533 203.499 213.533 203.499C211.739 198.549 213.587 192.335 221.091 184.161C220.375 184.161 195.242 174.91 195.242 174.91C195.242 174.91 210.084 146.904 210.323 139.525C210.562 132.146 201.515 127.876 193.035 130.487Z" fill="white"/>
<path d="M259.314 107.16C259.314 107.16 287.484 124.477 289.897 128.862C292.837 134.204 290.255 142.461 280.315 141.806C270.376 141.152 251.476 119.18 251.476 119.18L259.314 107.16Z" fill="white"/>
<path d="M269.463 136.034C262.41 131.845 251.556 119.517 251.447 119.393L251.818 119.069C251.926 119.192 262.729 131.462 269.715 135.61L269.463 136.034Z" fill="#DEEDEE"/>
<path d="M290.308 136.985C289.2 139.513 286.546 141.673 281.615 142.496C273.969 143.075 262.78 143.545 252.824 144.256C252.357 141.591 251.707 137.743 251.707 137.743C251.707 137.743 265.339 141.467 277.03 140.988C282.283 140.773 287.144 139.71 290.2 137.079C290.237 137.048 290.274 137.017 290.308 136.985Z" fill="#F2FAFF"/>
<path d="M252.625 116.052L251.285 116.771L249.732 114.842L251.869 113.697L252.625 116.052Z" fill="#333333"/>
<path d="M253.022 123.703C252.968 123.703 252.915 123.685 252.871 123.646C252.777 123.563 252.769 123.419 252.852 123.326C254.068 121.96 251.966 116.637 251.053 114.701C251 114.588 251.049 114.453 251.163 114.4C251.276 114.346 251.411 114.395 251.464 114.509C251.604 114.803 254.856 121.76 253.192 123.628C253.148 123.677 253.085 123.703 253.022 123.703Z" fill="#333333"/>
<path d="M252.809 124.619C252.734 124.619 252.662 124.582 252.618 124.515C252.549 124.41 252.58 124.27 252.685 124.201L254.885 122.778C254.99 122.71 255.131 122.741 255.2 122.845C255.268 122.95 255.238 123.09 255.133 123.159L252.932 124.582C252.895 124.607 252.851 124.619 252.809 124.619Z" fill="#333333"/>
<path d="M252.972 125.353C252.898 125.353 252.825 125.316 252.781 125.249C252.713 125.145 252.743 125.004 252.848 124.935L255.048 123.512C255.153 123.444 255.294 123.475 255.363 123.579C255.431 123.684 255.401 123.824 255.296 123.893L253.096 125.316C253.058 125.341 253.015 125.353 252.972 125.353Z" fill="#333333"/>
<path d="M253.136 126.087C253.061 126.087 252.989 126.05 252.944 125.983C252.876 125.878 252.906 125.738 253.011 125.669L255.212 124.246C255.317 124.178 255.457 124.209 255.527 124.313C255.595 124.418 255.565 124.558 255.46 124.627L253.259 126.05C253.221 126.075 253.179 126.087 253.136 126.087Z" fill="#333333"/>
<path d="M253.3 126.821C253.226 126.821 253.153 126.784 253.109 126.717C253.041 126.613 253.071 126.472 253.176 126.403L255.376 124.98C255.481 124.912 255.622 124.943 255.691 125.047C255.759 125.152 255.729 125.292 255.624 125.361L253.424 126.784C253.385 126.809 253.342 126.821 253.3 126.821Z" fill="#333333"/>
<path d="M253.464 127.556C253.389 127.556 253.316 127.519 253.272 127.452C253.204 127.347 253.234 127.207 253.339 127.138L255.54 125.715C255.645 125.647 255.785 125.678 255.854 125.782C255.923 125.887 255.892 126.027 255.787 126.096L253.587 127.519C253.549 127.544 253.506 127.556 253.464 127.556Z" fill="#333333"/>
<path d="M253.627 128.29C253.552 128.29 253.48 128.253 253.435 128.186C253.367 128.082 253.398 127.941 253.503 127.872L255.703 126.449C255.808 126.381 255.949 126.412 256.018 126.516C256.086 126.621 256.056 126.761 255.951 126.83L253.75 128.253C253.712 128.278 253.669 128.29 253.627 128.29Z" fill="#333333"/>
<path d="M253.79 129.024C253.716 129.024 253.643 128.987 253.599 128.92C253.531 128.815 253.561 128.675 253.666 128.606L255.866 127.183C255.971 127.115 256.112 127.146 256.181 127.25C256.249 127.355 256.219 127.495 256.114 127.564L253.914 128.987C253.876 129.012 253.832 129.024 253.79 129.024Z" fill="#333333"/>
<path d="M253.954 129.758C253.879 129.758 253.807 129.721 253.762 129.654C253.694 129.55 253.724 129.409 253.829 129.34L256.03 127.917C256.135 127.849 256.275 127.88 256.344 127.984C256.413 128.089 256.382 128.229 256.277 128.298L254.077 129.721C254.039 129.746 253.996 129.758 253.954 129.758Z" fill="#333333"/>
<path d="M254.117 130.493C254.042 130.493 253.97 130.456 253.925 130.389C253.857 130.285 253.888 130.144 253.993 130.075L256.193 128.653C256.298 128.585 256.439 128.615 256.508 128.719C256.576 128.824 256.546 128.965 256.441 129.034L254.24 130.456C254.202 130.481 254.16 130.493 254.117 130.493Z" fill="#333333"/>
<path d="M254.281 131.227C254.207 131.227 254.134 131.19 254.09 131.123C254.022 131.019 254.052 130.878 254.157 130.809L256.357 129.386C256.462 129.318 256.603 129.349 256.672 129.453C256.74 129.558 256.71 129.698 256.605 129.767L254.405 131.19C254.366 131.215 254.324 131.227 254.281 131.227Z" fill="#333333"/>
<path d="M254.445 131.961C254.37 131.961 254.298 131.924 254.253 131.857C254.185 131.753 254.215 131.612 254.32 131.543L256.521 130.121C256.626 130.053 256.766 130.083 256.836 130.188C256.904 130.292 256.873 130.433 256.769 130.502L254.568 131.924C254.53 131.949 254.487 131.961 254.445 131.961Z" fill="#333333"/>
<path d="M254.608 132.695C254.533 132.695 254.461 132.658 254.417 132.591C254.348 132.487 254.379 132.346 254.484 132.277L256.684 130.854C256.789 130.786 256.93 130.817 256.999 130.921C257.067 131.026 257.037 131.166 256.932 131.236L254.731 132.658C254.694 132.683 254.65 132.695 254.608 132.695Z" fill="#333333"/>
<path d="M254.772 133.43C254.697 133.43 254.624 133.393 254.58 133.326C254.512 133.222 254.542 133.081 254.647 133.012L256.848 131.59C256.952 131.522 257.093 131.552 257.162 131.657C257.23 131.761 257.2 131.902 257.095 131.971L254.895 133.393C254.857 133.418 254.814 133.43 254.772 133.43Z" fill="#333333"/>
<path d="M254.935 134.164C254.86 134.164 254.788 134.127 254.743 134.061C254.675 133.956 254.705 133.815 254.81 133.746L257.011 132.324C257.116 132.256 257.256 132.286 257.326 132.391C257.394 132.495 257.364 132.636 257.259 132.705L255.058 134.127C255.02 134.152 254.977 134.164 254.935 134.164Z" fill="#333333"/>
<path d="M255.098 134.898C255.024 134.898 254.951 134.861 254.907 134.794C254.839 134.69 254.869 134.549 254.974 134.48L257.174 133.058C257.279 132.99 257.42 133.02 257.489 133.125C257.557 133.229 257.527 133.37 257.422 133.439L255.222 134.861C255.184 134.886 255.141 134.898 255.098 134.898Z" fill="#333333"/>
<path d="M255.263 135.632C255.188 135.632 255.116 135.595 255.071 135.529C255.003 135.424 255.033 135.284 255.138 135.214L257.339 133.792C257.444 133.724 257.584 133.754 257.653 133.859C257.722 133.963 257.691 134.104 257.586 134.173L255.386 135.595C255.347 135.621 255.305 135.632 255.263 135.632Z" fill="#333333"/>
<path d="M257.942 163.589C257.928 163.589 257.913 163.588 257.898 163.585C257.775 163.561 257.695 163.441 257.718 163.319C260.3 150.152 259.144 138.401 257.656 136.39C257.038 135.556 256.096 136.071 256.056 136.094C255.946 136.156 255.808 136.117 255.746 136.008C255.685 135.899 255.723 135.76 255.833 135.699C256.291 135.442 257.339 135.199 258.021 136.121C259.496 138.111 260.883 149.547 258.165 163.408C258.144 163.515 258.048 163.589 257.942 163.589Z" fill="#333333"/>
<path d="M102.301 90.0556C102.301 90.0556 102.525 112.469 119.623 114.587C134.933 115.032 142.971 115.867 136.709 85.6796C132.91 72.189 102.525 75.56 102.301 90.0556Z" fill="#C95138"/>
<path d="M151.028 211.513H89.2578L93.5093 127.127C110.616 120.034 128.263 121.064 146.777 127.127L151.028 211.513Z" fill="#CCE4E5"/>
<path d="M107.972 134.899C107.972 135.636 105.642 168.102 114.356 181.07C123.069 194.037 102.985 212.161 102.985 212.161C84.2284 205.824 95.714 130.036 107.972 134.899Z" fill="#009899"/>
<path d="M129.814 125.599C129.814 125.599 128.007 132.418 120.68 132.725C113.353 133.033 111.106 125.599 111.106 125.599L112.67 113.298L113.608 105.923H127.313L128.848 117.996L129.814 125.599Z" fill="#F7A594"/>
<path d="M128.848 117.998C122.221 119.132 116.248 116.432 112.669 113.298L113.607 105.923H127.312L128.848 117.998Z" fill="#DE7964"/>
<path d="M111.663 117.442C111.663 117.914 120.192 132.476 120.192 132.476C120.192 132.476 112.8 137.488 112.8 137.109C112.8 136.731 109.294 123.209 109.294 123.209L111.663 117.442Z" fill="#10BBBC"/>
<path d="M129.29 118.198C129.29 118.671 120.003 132.666 120.003 132.666C120.003 132.666 126.826 138.244 126.826 137.866C126.826 137.489 131.66 123.967 131.66 123.967L129.29 118.198Z" fill="#10BBBC"/>
<path d="M103.708 219.656L82.1837 218.309L90.4651 175.73L90.4532 175.516L89.8008 164.252L89.5412 159.766L88.7904 146.803L88.1024 134.924L87.8157 129.967C87.8157 129.967 91.9493 127.34 97.5272 125.168C100.773 123.904 104.506 122.793 108.199 122.443C107.292 164.619 109.65 188.186 103.708 219.656Z" fill="white"/>
<path d="M101.743 154.332C99.5729 156.509 97.115 158.855 94.1681 161.152C92.8202 162.202 91.3716 163.243 89.8008 164.252C85.2247 167.193 79.6198 169.867 72.5144 171.765C71.729 172.064 70.9837 172.196 70.2859 172.179C64.76 172.055 62.1409 162.739 65.5313 154.667C66.6142 152.088 68.3094 149.637 70.7197 147.652L88.1034 134.924L95.8655 129.241C95.8731 129.237 95.8806 129.233 95.8882 129.229C104.083 125.048 111.545 145.882 101.743 154.332Z" fill="white"/>
<path d="M95.4447 156.216L94.1681 161.152L90.4531 175.516L89.8008 164.252C85.2247 167.192 79.6198 169.867 72.5144 171.765C71.729 172.064 70.9837 172.196 70.2859 172.179C64.76 172.055 62.1409 162.739 65.5313 154.667C65.8288 159.723 67.0588 164.14 70.2686 165.136C73.0554 166.002 76.8525 165.251 80.6508 163.883C83.8043 162.746 86.96 161.184 89.5412 159.766C93.0117 157.861 95.4447 156.216 95.4447 156.216Z" fill="#D9F1FF"/>
<path d="M132.864 123.255C142.904 124.21 152.025 129.153 152.025 129.153L149.45 175.73L157.731 218.309H129.473C131.405 201.36 136.452 163.127 132.864 123.255Z" fill="white"/>
<path d="M151.75 129.033C151.75 129.033 164.081 147.702 166.145 177.948C166.715 186.294 147.769 215.23 147.769 215.23H125.945L147.423 182.221C147.423 182.221 132.215 151.492 136.544 141.469C140.876 131.445 146.852 126.69 151.75 129.033Z" fill="white"/>
<path d="M126.481 214.789L126.151 214.581L148.747 178.765L141.534 158.851L141.9 158.719L149.176 178.811L149.127 178.891L126.481 214.789Z" fill="#D9F1FF"/>
<path d="M111.952 117.458C110.891 127.927 107.95 170.244 107.95 170.244C101.457 156.059 98.5452 145.765 98.5452 145.765L103.261 140.707L95.6978 128.146C100.907 120.954 111.952 117.458 111.952 117.458Z" fill="#BDE0E1"/>
<path d="M128.94 117.533C129.473 128.935 134.754 144.332 133.714 169.872C140.207 155.687 142.149 145.634 142.149 145.634L137.433 140.576L144.996 128.016C140.979 122.024 128.94 117.533 128.94 117.533Z" fill="#BDE0E1"/>
<path d="M133.812 162.829C133.812 162.829 115.325 157.603 119.867 141.769C122.107 133.957 135.441 130.218 128.151 118.27C128.119 118.217 128.086 118.162 128.053 118.108L127.058 109.308C127.058 109.308 133.961 107.677 136.505 104.323C134.605 109.399 136.777 111.94 137.894 113.004C142.283 117.185 146.906 121.605 146.972 129.128C147.097 143.419 132.538 143.094 133.812 162.829Z" fill="#C95138"/>
<path d="M134.694 96.9413C137.973 101.235 131.531 113.376 120.528 113.413C113.586 113.138 102.633 106.6 105.467 92.9583C103.483 81.5757 110.511 70.8203 120.528 70.8203C130.544 70.8192 136.927 84.9403 134.694 96.9413Z" fill="#F7A594"/>
<path d="M136.179 99.6138C137.993 99.6138 139.464 98.1466 139.464 96.3367C139.464 94.5268 137.993 93.0596 136.179 93.0596C134.365 93.0596 132.895 94.5268 132.895 96.3367C132.895 98.1466 134.365 99.6138 136.179 99.6138Z" fill="#F7A594"/>
<path d="M128.079 78.9893C123.367 88.39 106.092 92.7261 106.092 92.7261L103.362 93.1201L102.601 93.2302C102.601 93.2302 101.157 84.9844 106.413 77.4177C111.671 69.8509 120.037 70.5385 120.037 70.5385C120.037 70.5385 121.716 70.4824 123.604 70.8871C126.723 71.5575 130.414 73.4832 128.079 78.9893Z" fill="#C95138"/>
<path d="M123.604 70.8882C117.945 71.6989 112.547 73.5522 108.531 77.7631C104.895 81.5745 103.715 89.4878 103.362 93.1201L102.601 93.2302C102.601 93.2302 101.157 84.9844 106.413 77.4177C111.671 69.8509 120.037 70.5385 120.037 70.5385C120.037 70.5385 121.716 70.4834 123.604 70.8882Z" fill="#F56245"/>
<path d="M120.878 78.6881C118.093 72.3939 120.329 70.6085 120.329 70.6085C120.329 70.6085 128.695 69.921 133.952 77.4877C139.209 85.0545 135.978 93.0056 135.978 93.0056C135.978 93.0056 123.301 95.2022 120.878 78.6881Z" fill="#C95138"/>
<path d="M104.549 99.4359C106.363 99.4359 107.834 97.9686 107.834 96.1587C107.834 94.3488 106.363 92.8816 104.549 92.8816C102.735 92.8816 101.265 94.3488 101.265 96.1587C101.265 97.9686 102.735 99.4359 104.549 99.4359Z" fill="#F7A594"/>
<path d="M105.741 100.91C105.741 100.91 108.461 105.792 113.738 107.101C114.029 107.173 114.207 107.466 114.141 107.758C114.074 108.057 113.774 108.245 113.475 108.175C111.939 107.817 107.615 106.317 104.829 101.498L105.741 100.91Z" fill="black"/>
<path d="M105.507 101.554C106.612 101.207 107.12 99.7004 106.643 98.189C106.166 96.6777 104.884 95.7339 103.779 96.0811C102.675 96.4283 102.166 97.9349 102.644 99.4463C103.121 100.958 104.403 101.901 105.507 101.554Z" fill="black"/>
<path d="M104.783 101.954C105.951 101.587 106.489 99.9933 105.984 98.395C105.48 96.7966 104.123 95.7986 102.955 96.1659C101.787 96.5331 101.249 98.1265 101.754 99.7249C102.258 101.323 103.615 102.321 104.783 101.954Z" fill="white"/>
<path d="M104.042 100.931C104.716 100.719 105.026 99.801 104.735 98.8798C104.444 97.9587 103.662 97.3836 102.989 97.5954C102.315 97.8071 102.005 98.7255 102.296 99.6466C102.587 100.568 103.368 101.143 104.042 100.931Z" fill="#B8E5FF"/>
<path d="M106.492 100.13C106.479 100.13 106.466 100.129 106.453 100.127C106.326 100.105 106.239 99.9853 106.261 99.8579C106.636 97.6073 105.806 95.1538 104.823 94.1726C103.676 93.0284 102.255 93.9405 102.194 93.9804C102.086 94.0517 101.941 94.0214 101.87 93.9146C101.798 93.8066 101.827 93.6631 101.936 93.5918C101.954 93.5799 103.735 92.4271 105.154 93.8433C106.243 94.9303 107.128 97.5069 106.723 99.9367C106.704 100.049 106.605 100.13 106.492 100.13Z" fill="black"/>
<path d="M105.331 92.7693C105.331 92.7693 120.733 88.973 124.434 80.0915C126.768 73.9701 123.001 70.7437 123.001 70.7437C123.001 70.7437 126.795 72.2279 126.668 78.5609C126.468 88.4883 105.331 92.7693 105.331 92.7693Z" fill="#A33A23"/>
<path d="M119.902 101.255C119.373 101.255 118.219 101.193 118.047 100.663C117.843 100.032 119.664 95.091 120.032 94.1066C120.064 94.0213 120.159 93.9781 120.243 94.0105C120.329 94.0418 120.372 94.1368 120.339 94.221C119.279 97.061 118.248 100.21 118.36 100.562C118.452 100.845 119.452 100.945 120.1 100.923C120.103 100.923 120.104 100.923 120.106 100.923C120.193 100.923 120.267 100.993 120.27 101.082C120.273 101.173 120.202 101.248 120.112 101.251C120.067 101.252 119.993 101.255 119.902 101.255Z" fill="#BA4228"/>
<path d="M116.833 106C116.833 106 122.463 106.604 127.185 103.946C125.914 109.14 120.163 111.859 116.833 106Z" fill="#A33A23"/>
<path d="M112.411 96.5029C112.001 96.5029 111.664 96.1683 111.664 95.7581V94.2685C111.664 93.8594 112 93.5237 112.411 93.5237C112.821 93.5237 113.157 93.8583 113.157 94.2685V95.7581C113.157 96.1683 112.822 96.5029 112.411 96.5029Z" fill="black"/>
<path d="M128.279 96.6238C127.869 96.6238 127.532 96.2891 127.532 95.8789V94.3893C127.532 93.9802 127.868 93.6445 128.279 93.6445C128.689 93.6445 129.025 93.9792 129.025 94.3893V95.8789C129.025 96.2891 128.69 96.6238 128.279 96.6238Z" fill="black"/>
<path d="M130.078 98.2861C130.078 98.6293 129.242 98.9078 128.21 98.9078C127.178 98.9078 126.341 98.6293 126.341 98.2861C126.341 97.9428 127.178 97.6643 128.21 97.6643C129.242 97.6643 130.078 97.9428 130.078 98.2861Z" fill="#F79985"/>
<path d="M114.371 98.2861C114.371 98.6293 113.535 98.9078 112.503 98.9078C111.471 98.9078 110.634 98.6293 110.634 98.2861C110.634 97.9428 111.471 97.6643 112.503 97.6643C113.535 97.6643 114.371 97.9428 114.371 98.2861Z" fill="#F79985"/>
<path d="M135.411 98.1373C135.321 98.1373 135.247 98.0639 135.247 97.9733C135.247 97.8696 135.264 95.4398 136.779 95.0351C136.866 95.0113 136.956 95.0631 136.98 95.1506C137.004 95.238 136.952 95.3276 136.864 95.3513C135.593 95.6914 135.576 97.9506 135.576 97.9733C135.576 98.0639 135.502 98.1373 135.411 98.1373Z" fill="#BA4228"/>
<path d="M90.253 134.656L84.1797 127.77L94.8475 117.742L99.7719 120.831L90.253 134.656Z" fill="#F7A594"/>
<path d="M94.5781 118.129C94.6301 117.538 96.8348 106.943 96.6812 107.194C98.873 104.415 103.651 107.875 103.835 112.359C103.835 112.359 101.807 119.978 99.1369 121.547C94.3185 124.347 94.5781 118.129 94.5781 118.129Z" fill="#F7A594"/>
<path d="M96.6736 107.171C96.6736 107.171 100.576 96.3929 100.69 96.448C100.805 96.503 101.791 96.707 101.632 98.3013C101.471 99.8967 98.8264 108.674 98.8264 108.674L96.6736 107.171Z" fill="#F7A594"/>
<path d="M98.4619 108.052C98.4619 108.052 104.213 98.3597 104.321 98.4385C104.429 98.5173 105.413 98.9166 104.942 100.54C104.471 102.164 100.803 109.299 100.803 109.299L98.4619 108.052Z" fill="#F7A594"/>
<path d="M98.9011 109.82C99.0742 109.511 102.655 106.67 103.47 106.3C104.284 105.93 108.8 105.853 108.8 105.853C108.8 105.853 109.029 107.128 107.301 107.287C105.573 107.445 104.33 108.205 104.33 108.205L101.499 112.863L98.9011 109.82Z" fill="#F7A594"/>
<path d="M101.395 112.775C101.395 112.775 102.392 109.391 104.599 109.195C106.711 109.007 109.121 111.158 109.121 111.158C109.121 111.158 109.068 111.91 107.597 111.642C106.125 111.374 105.747 110.997 105.747 110.997L104.244 111.439L103.052 114.889L101.395 112.775Z" fill="#F7A594"/>
<path d="M90.6046 116.93C89.6396 116.418 88.6681 115.91 87.675 115.452L71.3418 145.782L66.2345 152.745C59.6808 163.334 68.4479 178.393 83.2374 164.565C86.0296 161.954 86.8172 158.612 86.8172 158.612L90.9378 148.407L97.6516 131.782L103.031 124.457C99.0677 121.664 94.8886 119.201 90.6046 116.93Z" fill="white"/>
<path d="M83.0871 163.072L82.7744 162.841C83.9612 161.239 84.8493 159.43 85.7094 157.681C85.8911 157.309 86.0729 156.94 86.2579 156.572C87.3916 154.39 88.3826 152.335 89.3778 150.101C89.9523 148.782 90.5278 147.47 91.1012 146.163C93.0257 141.775 94.8443 137.63 96.6076 133.294L96.626 133.26C98.0172 131.177 99.5047 129.115 100.945 127.121C101.543 126.291 102.163 125.433 102.76 124.594L103.077 124.819C102.479 125.658 101.86 126.518 101.261 127.348C99.8271 129.334 98.345 131.388 96.9614 133.459C95.198 137.794 93.2973 142.128 91.4582 146.32C90.8848 147.627 90.3093 148.937 89.7337 150.258C88.7342 152.501 87.74 154.563 86.6051 156.749C86.4223 157.114 86.2416 157.483 86.0599 157.852C85.1912 159.617 84.2944 161.442 83.0871 163.072Z" fill="#D9F1FF"/>
<path d="M174.75 186.011C173.819 187.681 172.617 189.359 171.09 191.023C171.09 191.023 167.897 185.744 167.328 178.757C166.891 173.398 167.997 167.035 173.269 161.277C173.267 161.277 181.811 173.348 174.75 186.011Z" fill="#5FB38C"/>
<path d="M174.75 186.011C173.819 187.681 172.617 189.359 171.09 191.023C171.09 191.023 167.897 185.744 167.328 178.757L174.75 186.011Z" fill="#379168"/>
<path d="M170.999 190.822C170.816 187.953 170.81 184.991 170.905 182.149L168.33 178.946L168.42 178.874L170.911 181.972C170.996 179.546 171.152 177.213 171.336 175.102L171.293 175.137L168.697 171.908L168.787 171.836L171.343 175.016C171.452 173.766 171.571 172.597 171.689 171.535C171.69 171.524 171.691 171.512 171.692 171.501C172.294 166.096 173.006 162.264 173.012 162.225L173.126 162.246C173.118 162.284 172.417 166.062 171.819 171.405L175.341 168.74L175.411 168.832L171.8 171.563C171.605 173.331 171.407 175.397 171.252 177.634L175.704 174.926L175.763 175.025L171.241 177.774C170.965 181.83 170.833 186.432 171.111 190.813L170.999 190.822Z" fill="#379168"/>
<path d="M175.871 191.391C174.273 192.443 172.432 193.38 170.306 194.153C170.306 194.153 169.915 188 172.639 181.539C174.729 176.583 178.652 171.445 185.991 168.764C185.991 168.763 187.99 183.406 175.871 191.391Z" fill="#74C9A2"/>
<path d="M175.871 191.391C174.273 192.443 172.432 193.38 170.306 194.153C170.306 194.153 169.915 188 172.639 181.539L175.871 191.391Z" fill="#379168"/>
<path d="M184.4 176.454L184.381 176.34L180.023 177.084C183.024 172.619 185.393 169.59 185.417 169.56L185.326 169.488C185.303 169.519 182.899 172.592 179.866 177.111C179.86 177.121 179.853 177.13 179.847 177.139C179.252 178.027 178.606 179.01 177.931 180.069L177.133 176.071L177.019 176.093L177.829 180.153L177.884 180.142C176.745 181.93 175.527 183.928 174.331 186.041L174.244 186.196C172.847 188.674 171.482 191.306 170.318 193.935L170.424 193.982C172.203 189.966 174.447 185.943 176.567 182.472L181.851 182.113L181.843 181.999L176.642 182.352C177.812 180.439 178.944 178.696 179.935 177.218L184.4 176.454Z" fill="#379168"/>
<path d="M174.091 194.916C174.091 194.916 175.521 172.442 155.742 165.214C155.743 165.214 152.746 187.158 174.091 194.916Z" fill="#74C9A2"/>
<path d="M174.077 194.661C172.715 191.584 171.119 188.506 169.484 185.606L170.424 180.896L170.292 180.87L169.383 185.427C167.984 182.955 166.558 180.617 165.226 178.526L165.29 178.539L166.238 173.79L166.106 173.764L165.172 178.442C164.382 177.204 163.627 176.053 162.931 175.015C162.923 175.004 162.916 174.993 162.909 174.982V174.98H162.908C159.361 169.693 156.549 166.099 156.521 166.062L156.415 166.145C156.443 166.181 159.215 169.725 162.725 174.949L157.628 174.079L157.605 174.212L162.829 175.104C163.989 176.833 165.312 178.872 166.681 181.109L160.596 180.697L160.587 180.831L166.768 181.25C169.248 185.312 171.874 190.017 173.954 194.715L174.077 194.661Z" fill="#379168"/>
<path d="M181.203 188.031L179.21 203.97H164.44L162.7 190.056L162.447 188.031H181.203Z" fill="#E3733F"/>
<path d="M181.203 188.031L179.21 203.969H171.59C176.388 201.839 179.322 196.643 178.784 193.661C178.182 190.33 164.008 190.072 162.699 190.055L162.446 188.03H181.203V188.031Z" fill="#DB542E"/>
<path d="M181.733 187.926H161.918V189.716H181.733V187.926Z" fill="#E3733F"/>
<path d="M181.263 204.014H162.011L161.343 202.697H181.933L181.263 204.014Z" fill="#DB542E"/>
<path d="M251.272 155.7L236.481 202.144H196.756V204.109H235.856H238.117C242.417 190.671 252.122 160.427 253.862 155.698H251.272V155.7Z" fill="#10BBBC"/>
<path d="M253.892 155.699L238.129 204.108H249.025H300.52L315.936 155.699H253.892Z" fill="#009899"/>
<path d="M279.702 187.028H275.095L279.735 171.736H284.342L279.702 187.028Z" fill="white"/>
<path d="M271.358 181.681L272.752 177.083H288.079L286.684 181.681H271.358Z" fill="white"/>
<path d="M98.7042 155.7L113.495 202.144H153.22V204.109H114.12H111.859C107.559 190.671 97.8539 160.427 96.1143 155.698H98.7042V155.7Z" fill="#10BBBC"/>
<path d="M96.084 155.7L111.847 204.109H100.951H49.4566L34.0407 155.7H96.084Z" fill="#009899"/>
<path d="M70.274 187.028H74.8826L70.2426 171.736H65.6341L70.274 187.028Z" fill="white"/>
<path d="M78.6192 181.681L77.2236 177.083H61.8975L63.293 181.681H78.6192Z" fill="white"/>
<path d="M76.9899 112.702H35.8116C33.6155 112.702 31.8349 110.925 31.8349 108.734V63.0332C31.8349 60.8419 33.6155 59.0652 35.8116 59.0652H76.9899C79.186 59.0652 80.9667 60.8419 80.9667 63.0332V108.734C80.9667 110.925 79.186 112.702 76.9899 112.702Z" fill="#A7D1D2"/>
<path d="M52.3948 66.2109H39.0722V80.7249H52.3948V66.2109Z" fill="white"/>
<path d="M45.8141 73.6579C46.6417 73.6579 47.4055 73.2552 47.8934 72.6421C48.2536 72.1974 48.4667 71.6264 48.4667 70.9906C48.4667 69.5301 47.2778 68.3223 45.8141 68.3223C44.3288 68.3223 43.1399 69.5291 43.1399 70.9906C43.1399 71.6264 43.3519 72.1974 43.7132 72.6421C44.2011 73.2552 44.9649 73.6579 45.8141 73.6579Z" fill="#009899"/>
<path d="M50.5125 78.6935L50.5135 76.4494C49.7454 73.6547 41.4652 73.767 41.092 76.4494L41.0898 78.6935H50.5125Z" fill="#009899"/>
<path d="M73.0316 68.2835H56.3651C55.9735 68.2835 55.6554 67.9661 55.6554 67.5754V67.1673C55.6554 66.7766 55.9735 66.4592 56.3651 66.4592H73.0316C73.4232 66.4592 73.7413 66.7766 73.7413 67.1673V67.5754C73.7423 67.9672 73.4243 68.2835 73.0316 68.2835Z" fill="#6BADAF"/>
<path d="M73.0316 73.1885H56.3651C55.9735 73.1885 55.6554 72.8711 55.6554 72.4804V72.0724C55.6554 71.6816 55.9735 71.3643 56.3651 71.3643H73.0316C73.4232 71.3643 73.7413 71.6816 73.7413 72.0724V72.4804C73.7423 72.8711 73.4243 73.1885 73.0316 73.1885Z" fill="#6BADAF"/>
<path d="M73.0316 78.5908H56.3651C55.9735 78.5908 55.6554 78.2735 55.6554 77.8827V77.4747C55.6554 77.084 55.9735 76.7666 56.3651 76.7666H73.0316C73.4232 76.7666 73.7413 77.084 73.7413 77.4747V77.8827C73.7423 78.2735 73.4243 78.5908 73.0316 78.5908Z" fill="#6BADAF"/>
<path d="M55.2508 87.7401H39.2799C39.0062 87.7401 38.7834 87.5188 38.7834 87.2446V86.4103C38.7834 86.1372 39.0052 85.9148 39.2799 85.9148H55.2508C55.5245 85.9148 55.7474 86.1361 55.7474 86.4103V87.2446C55.7463 87.5188 55.5245 87.7401 55.2508 87.7401Z" fill="#A7D1D2"/>
<path d="M55.2508 93.4503H39.2799C39.0062 93.4503 38.7834 93.229 38.7834 92.9549V92.1205C38.7834 91.8474 39.0052 91.625 39.2799 91.625H55.2508C55.5245 91.625 55.7474 91.8463 55.7474 92.1205V92.9549C55.7463 93.2279 55.5245 93.4503 55.2508 93.4503Z" fill="#A7D1D2"/>
<path d="M55.2508 99.1593H39.2799C39.0062 99.1593 38.7834 98.938 38.7834 98.6638V97.8294C38.7834 97.5563 39.0052 97.334 39.2799 97.334H55.2508C55.5245 97.334 55.7474 97.5553 55.7474 97.8294V98.6638C55.7463 98.9369 55.5245 99.1593 55.2508 99.1593Z" fill="#A7D1D2"/>
<path d="M55.2508 104.869H39.2799C39.0062 104.869 38.7834 104.647 38.7834 104.373V103.539C38.7834 103.266 39.0052 103.043 39.2799 103.043H55.2508C55.5245 103.043 55.7474 103.264 55.7474 103.539V104.373C55.7463 104.647 55.5245 104.869 55.2508 104.869Z" fill="#A7D1D2"/>
<path d="M74.3817 85.3254H58.903V105.269H74.3817V85.3254Z" fill="white"/>
<path d="M139.227 71.4278H180.415C181.938 71.4278 183.174 70.195 183.174 68.6752V51.0482C183.174 49.5284 181.938 48.2957 180.415 48.2957H139.227C137.704 48.2957 136.468 49.5284 136.468 51.0482V68.6752C136.468 70.195 137.704 71.4278 139.227 71.4278Z" fill="#A7D1D2"/>
<path d="M144.177 67.6898V78.1257L154.838 67.489L144.177 67.6898Z" fill="#A7D1D2"/>
<path d="M174.24 62.1069C175.364 62.1069 176.275 61.1979 176.275 60.0765C176.275 58.9552 175.364 58.0461 174.24 58.0461C173.116 58.0461 172.205 58.9552 172.205 60.0765C172.205 61.1979 173.116 62.1069 174.24 62.1069Z" fill="white"/>
<path d="M167.416 62.1069C168.54 62.1069 169.451 61.1979 169.451 60.0765C169.451 58.9552 168.54 58.0461 167.416 58.0461C166.292 58.0461 165.381 58.9552 165.381 60.0765C165.381 61.1979 166.292 62.1069 167.416 62.1069Z" fill="white"/>
<path d="M160.592 62.1069C161.716 62.1069 162.627 61.1979 162.627 60.0765C162.627 58.9552 161.716 58.0461 160.592 58.0461C159.468 58.0461 158.557 58.9552 158.557 60.0765C158.557 61.1979 159.468 62.1069 160.592 62.1069Z" fill="white"/>
<path d="M153.768 62.1069C154.891 62.1069 155.803 61.1979 155.803 60.0765C155.803 58.9552 154.891 58.0461 153.768 58.0461C152.644 58.0461 151.733 58.9552 151.733 60.0765C151.733 61.1979 152.644 62.1069 153.768 62.1069Z" fill="white"/>
<path d="M146.944 62.1069C148.067 62.1069 148.978 61.1979 148.978 60.0765C148.978 58.9552 148.067 58.0461 146.944 58.0461C145.82 58.0461 144.909 58.9552 144.909 60.0765C144.909 61.1979 145.82 62.1069 146.944 62.1069Z" fill="white"/>
<path d="M126.58 47.2799H98.8437C97.8182 47.2799 96.9863 46.4499 96.9863 45.4266V33.555C96.9863 32.5317 97.8182 31.7017 98.8437 31.7017H126.58C127.606 31.7017 128.438 32.5317 128.438 33.555V45.4255C128.438 46.4499 127.606 47.2799 126.58 47.2799Z" fill="#A7D1D2"/>
<path d="M123.246 44.7616V51.7898L116.067 44.6267L123.246 44.7616Z" fill="#A7D1D2"/>
<path d="M103.002 41.0031C103.759 41.0031 104.373 40.3908 104.373 39.6355C104.373 38.8801 103.759 38.2678 103.002 38.2678C102.245 38.2678 101.632 38.8801 101.632 39.6355C101.632 40.3908 102.245 41.0031 103.002 41.0031Z" fill="white"/>
<path d="M107.598 41.0031C108.355 41.0031 108.968 40.3908 108.968 39.6355C108.968 38.8801 108.355 38.2678 107.598 38.2678C106.841 38.2678 106.227 38.8801 106.227 39.6355C106.227 40.3908 106.841 41.0031 107.598 41.0031Z" fill="white"/>
<path d="M112.193 41.0031C112.95 41.0031 113.564 40.3908 113.564 39.6355C113.564 38.8801 112.95 38.2678 112.193 38.2678C111.436 38.2678 110.823 38.8801 110.823 39.6355C110.823 40.3908 111.436 41.0031 112.193 41.0031Z" fill="white"/>
<path d="M116.789 41.0031C117.546 41.0031 118.16 40.3908 118.16 39.6355C118.16 38.8801 117.546 38.2678 116.789 38.2678C116.032 38.2678 115.418 38.8801 115.418 39.6355C115.418 40.3908 116.032 41.0031 116.789 41.0031Z" fill="white"/>
<path d="M121.385 41.0031C122.142 41.0031 122.755 40.3908 122.755 39.6355C122.755 38.8801 122.142 38.2678 121.385 38.2678C120.628 38.2678 120.014 38.8801 120.014 39.6355C120.014 40.3908 120.628 41.0031 121.385 41.0031Z" fill="white"/>
<path d="M291.788 81.175H274.765C272.312 81.175 270.316 83.1666 270.316 85.6136V102.599C270.316 105.048 272.312 107.039 274.765 107.039H291.788C294.241 107.039 296.237 105.048 296.237 102.599V85.6136C296.237 83.1666 294.242 81.175 291.788 81.175ZM291.788 106.144H274.765C272.807 106.144 271.213 104.554 271.213 102.599V87.5674H295.339V102.599C295.34 104.554 293.746 106.144 291.788 106.144Z" fill="#A7D1D2"/>
<path d="M280.548 90.5671H277.014V93.9684H280.548V90.5671Z" fill="#A7D1D2"/>
<path d="M285.187 90.5671H281.653V93.9684H285.187V90.5671Z" fill="white"/>
<path d="M289.539 90.5671H286.005V93.9684H289.539V90.5671Z" fill="white"/>
<path d="M294.177 90.5671H290.642V93.9684H294.177V90.5671Z" fill="white"/>
<path d="M275.91 95.1558H272.376V98.557H275.91V95.1558Z" fill="white"/>
<path d="M280.548 95.1558H277.014V98.557H280.548V95.1558Z" fill="white"/>
<path d="M285.187 95.1558H281.653V98.557H285.187V95.1558Z" fill="white"/>
<path d="M289.539 95.1558H286.005V98.557H289.539V95.1558Z" fill="white"/>
<path d="M294.177 95.1558H290.642V98.557H294.177V95.1558Z" fill="white"/>
<path d="M275.91 99.7434H272.376V103.145H275.91V99.7434Z" fill="white"/>
<path d="M280.548 99.7434H277.014V103.145H280.548V99.7434Z" fill="white"/>
<path d="M285.187 99.7434H281.653V103.145H285.187V99.7434Z" fill="white"/>
<path d="M289.539 99.7434H286.005V103.145H289.539V99.7434Z" fill="white"/>
<path d="M172.129 119.296C180.557 119.296 187.389 112.479 187.389 104.07C187.389 95.6603 180.557 88.8433 172.129 88.8433C163.701 88.8433 156.869 95.6603 156.869 104.07C156.869 112.479 163.701 119.296 172.129 119.296Z" fill="#CCE4E5"/>
<path d="M165.81 95.7246L165.496 96.0387L165.454 95.9977L162.157 99.2878L166.158 103.279L167.942 101.5C170.108 103.323 172.526 105.732 174.364 107.899L172.576 109.684L176.577 113.675L177.238 113.016C177.216 113.054 177.191 113.088 177.161 113.118L180.201 110.085C181.804 108.484 167.414 94.1259 165.81 95.7246Z" fill="white"/>
<path d="M260.246 75.8793C264.77 75.8793 268.438 72.2194 268.438 67.7048C268.438 63.1901 264.77 59.5303 260.246 59.5303C255.721 59.5303 252.053 63.1901 252.053 67.7048C252.053 72.2194 255.721 75.8793 260.246 75.8793Z" fill="#CCE4E5"/>
<path d="M265.25 69.2829H259.235V61.9233H260.372V68.1484H265.25V69.2829Z" fill="white"/>
<path d="M215.605 45.88C219.891 45.88 223.365 42.4134 223.365 38.1373C223.365 33.8611 219.891 30.3945 215.605 30.3945C211.32 30.3945 207.846 33.8611 207.846 38.1373C207.846 42.4134 211.32 45.88 215.605 45.88Z" fill="#CCE4E5"/>
<path d="M214.522 39.6041V39.3958C214.522 38.6715 214.819 38.1231 215.632 37.3988C216.084 36.993 216.226 36.6637 216.226 36.2795C216.226 35.8628 215.984 35.5228 215.457 35.5228C214.831 35.5228 214.622 35.9502 214.567 36.477H213.017C213.072 35.5552 213.655 34.3052 215.48 34.316C217.283 34.316 217.811 35.4785 217.811 36.3345C217.811 37.0253 217.592 37.4971 216.8 38.2321C216.327 38.6715 216.173 39.0331 216.173 39.4832V39.6041H214.522ZM214.522 41.9853V40.1643H216.171V41.9853H214.522Z" fill="white"/>
</g>
<defs>
<clipPath id="clip0_211_1088">
<rect width="341" height="220" fill="white"/>
</clipPath>
</defs>
</svg>
