<svg width="20" height="20" viewBox="0 0 20 20" fill="none" xmlns="http://www.w3.org/2000/svg">
<path d="M19.4845 14.7573L16.9989 12.2711C16.3357 11.6079 15.1769 11.6067 14.5126 12.2711L14.0981 12.6856L19.0702 17.6573L19.4845 17.243C20.1728 16.5547 20.1705 15.4421 19.4845 14.7573Z" fill="#009899"/>
<path d="M13.2467 13.491C12.7237 13.8962 11.9775 13.88 11.4996 13.4011L6.58486 8.48292C6.10583 8.00389 6.0897 7.25717 6.49489 6.73541L1.53429 1.77509C-0.599736 4.26259 -0.516298 8.01077 1.83898 10.366L9.61646 18.1469C11.8766 20.407 15.5788 20.7068 18.2076 18.4515L13.2467 13.491Z" fill="#009899"/>
<path d="M7.715 2.98405L5.22932 0.497829C4.56612 -0.165376 3.40741 -0.166509 2.74311 0.497829L2.32861 0.912322L7.30066 5.88409L7.715 5.46972C8.4032 4.78151 8.40094 3.66885 7.715 2.98405Z" fill="#009899"/>
</svg>
