<svg width="30" height="30" viewBox="0 0 30 30" fill="none" xmlns="http://www.w3.org/2000/svg">
<path d="M10.5423 12.6223C6.7363 12.6223 3.63989 15.7068 3.63989 19.4982C3.63989 23.2896 6.7363 26.3741 10.5423 26.3741C14.3483 26.3741 17.4448 23.2896 17.4448 19.4982C17.4448 15.7068 14.3483 12.6223 10.5423 12.6223Z" fill="#009899"/>
<path d="M29.2449 25.967H27.6133C27.1614 24.9825 26.1659 24.2955 25.0101 24.2955C24.6373 24.2955 24.2819 24.3689 23.9551 24.4986L23.0514 18.8741C22.8561 17.6583 21.882 16.7521 20.6804 16.6189C20.2507 15.1229 19.4958 13.7622 18.4969 12.6178V8.57333H18.9238C19.3408 8.57333 19.679 8.23659 19.679 7.82101C19.679 7.40543 19.3408 7.06869 18.9238 7.06869H17.7417H11.3462H4.21822C3.74787 4.18295 3.26694 1.24243 3.16695 0.631545C3.09989 0.22138 2.7117 -0.0575801 2.30011 0.0101287C1.88836 0.0769347 1.60908 0.463627 1.67614 0.873641C2.08759 3.3885 2.99536 8.94453 3.44683 11.7379C1.33025 13.6599 0 16.4271 0 19.4981C0 25.2888 4.72935 30 10.5423 30C16.3552 30 21.0846 25.2888 21.0846 19.4981C21.0846 19.0882 21.0582 18.6845 21.0119 18.2868C21.297 18.4644 21.5028 18.7584 21.5598 19.1118L22.6035 25.6078C22.3158 26.0526 22.1466 26.5804 22.1466 27.1477C22.1466 28.7205 23.4311 30 25.0099 30C26.4787 30 27.6914 28.8921 27.8535 27.4715H29.2448C29.6618 27.4715 30 27.1347 30 26.7191C30 26.3036 29.662 25.967 29.2449 25.967ZM11.3462 8.57318H16.9863V11.1953C15.2029 9.81872 12.9679 8.99644 10.5423 8.99644C8.42843 8.99644 6.45957 9.62177 4.80759 10.6931C4.70383 10.053 4.58647 9.33062 4.46321 8.57333H11.3462V8.57318ZM10.5423 27.8788C5.90342 27.8788 2.12942 24.1193 2.12942 19.4982C2.12942 14.8772 5.90342 11.1177 10.5423 11.1177C15.1812 11.1177 18.9552 14.8772 18.9552 19.4982C18.9552 24.1193 15.1812 27.8788 10.5423 27.8788Z" fill="#009899"/>
</svg>
