<svg width="21" height="26" viewBox="0 0 21 26" fill="none" xmlns="http://www.w3.org/2000/svg">
<path d="M18.2062 13.2171C18.2062 12.7152 17.8298 12.3313 17.3375 12.3313C16.8451 12.3313 16.4687 12.7152 16.4687 13.2171C16.4687 16.6718 13.7175 19.4769 10.3292 19.4769C6.94091 19.4769 4.18973 16.6718 4.18973 13.2171C4.18973 12.7152 3.81326 12.3313 3.32094 12.3313C2.82863 12.3313 2.45215 12.7152 2.45215 13.2171C2.45215 17.3214 5.46396 20.776 9.46041 21.219L9.46041 23.5811L6.30379 23.5811C5.81148 23.5811 5.435 23.965 5.435 24.4669C5.435 24.9689 5.81148 25.3528 6.30379 25.3528L14.3546 25.3528C14.8469 25.3528 15.2234 24.9689 15.2234 24.4669C15.2234 23.965 14.8469 23.5811 14.3546 23.5811L11.198 23.5811L11.198 21.219C15.1944 20.776 18.2062 17.3214 18.2062 13.2171Z" fill="white"/>
<path d="M10.329 0.254883C7.66466 0.254883 5.49268 2.46942 5.49268 5.18591L5.49268 13.1878C5.49268 15.9338 7.66466 18.1188 10.329 18.1483C12.9932 18.1483 15.1652 15.9338 15.1652 13.2173L15.1652 5.18591C15.1652 2.46942 12.9932 0.254883 10.329 0.254883Z" fill="white"/>
<rect width="1.59092" height="26.4117" rx="0.795459" transform="matrix(0.700214 0.713933 -0.700214 0.713933 19.1011 2.54541)" fill="white"/>
<rect width="1.59092" height="16.7046" rx="0.795458" transform="matrix(0.700214 0.713933 -0.700214 0.713933 16.0195 7.95947)" fill="#009899"/>
</svg>
