<svg width="30" height="38" viewBox="0 0 30 38" fill="none" xmlns="http://www.w3.org/2000/svg">
<path d="M12.8988 25.9597C20.0227 25.9597 25.7977 20.1484 25.7977 12.9799C25.7977 5.81128 20.0227 0 12.8988 0C5.775 0 0 5.81128 0 12.9799C0 20.1484 5.775 25.9597 12.8988 25.9597Z" fill="#009899"/>
<path opacity="0.7" d="M28.0119 29.9328C27.5109 29.9166 27.0344 29.7104 26.678 29.3556L23.6234 25.7851C22.9685 25.1863 22.9149 24.1684 23.5033 23.5033C23.7787 23.2246 24.1532 23.0679 24.5438 23.0679C24.9343 23.0679 25.3088 23.2246 25.5842 23.5033L29.4258 26.5771C29.9792 27.1435 30.15 27.9843 29.8618 28.7237C29.5736 29.4632 28.8804 29.963 28.0919 29.9999L28.0119 29.9328Z" fill="#C0E6E6"/>
<rect x="9" y="33" width="11" height="5" rx="2.5" fill="#009899"/>
</svg>
