<svg width="20" height="22" viewBox="0 0 20 22" fill="none" xmlns="http://www.w3.org/2000/svg">
<path d="M8.59922 18.5987C13.3484 18.5987 17.1984 14.5696 17.1984 9.59935C17.1984 4.62913 13.3484 0.599976 8.59922 0.599976C3.85 0.599976 0 4.62913 0 9.59935C0 14.5696 3.85 18.5987 8.59922 18.5987Z" fill="#009899"/>
<path opacity="0.4" d="M18.6746 21.3535C18.3406 21.3422 18.023 21.1993 17.7854 20.9533L15.749 18.4778C15.3124 18.0626 15.2767 17.3568 15.6689 16.8957C15.8525 16.7025 16.1022 16.5938 16.3626 16.5938C16.6229 16.5938 16.8726 16.7025 17.0562 16.8957L19.6173 19.0269C19.9862 19.4196 20.1 20.0025 19.9079 20.5152C19.7158 21.0279 19.2536 21.3745 18.728 21.4L18.6746 21.3535Z" fill="#009899"/>
</svg>
