<svg width="30" height="30" viewBox="0 0 30 30" fill="none" xmlns="http://www.w3.org/2000/svg">
<path d="M12.8988 25.9597C20.0227 25.9597 25.7977 20.1484 25.7977 12.9799C25.7977 5.81128 20.0227 0 12.8988 0C5.775 0 0 5.81128 0 12.9799C0 20.1484 5.775 25.9597 12.8988 25.9597Z" fill="#777A95"/>
<path opacity="0.4" d="M28.0119 29.9329C27.5109 29.9167 27.0344 29.7105 26.678 29.3557L23.6234 25.7853C22.9685 25.1864 22.9149 24.1685 23.5033 23.5034C23.7787 23.2247 24.1532 23.068 24.5438 23.068C24.9343 23.068 25.3088 23.2247 25.5842 23.5034L29.4258 26.5772C29.9792 27.1436 30.15 27.9844 29.8618 28.7239C29.5736 29.4633 28.8804 29.9632 28.0919 30L28.0119 29.9329Z" fill="#A0A2B3"/>
</svg>
