<svg width="22" height="16" viewBox="0 0 22 16" fill="none" xmlns="http://www.w3.org/2000/svg">
<path d="M21.5211 0.462338C21.4147 0.420745 21.3124 0.399861 21.2141 0.399861C20.9931 0.399861 20.8091 0.479194 20.6617 0.637422L15.7141 5.66255V3.60006C15.7141 2.60827 15.3683 1.76047 14.6767 1.05624C13.985 0.352095 13.1525 0 12.1783 0H3.53562C2.56176 0 1.72894 0.352095 1.03724 1.05624C0.345805 1.76047 0 2.60827 0 3.60006V12.4001C0 13.3918 0.345805 14.2395 1.03729 14.9437C1.72898 15.6479 2.56181 16 3.53567 16H12.1784C13.1525 16 13.9851 15.6479 14.6768 14.9437C15.3684 14.2395 15.7142 13.3918 15.7142 12.4001V10.3249L20.6618 15.3625C20.8092 15.5207 20.9932 15.6 21.2142 15.6C21.3125 15.6 21.4148 15.5792 21.5212 15.5377C21.8405 15.3959 22 15.1502 22 14.8002V1.20002C21.9999 0.849853 21.8404 0.60406 21.5211 0.462338Z" fill="#009899"/>
<path d="M5.71484 12.2858L5.71484 3.71434" stroke="white" stroke-linecap="round"/>
<path d="M9.14307 10.2857L9.14307 5.71428" stroke="white" stroke-linecap="round"/>
</svg>
