<svg width="31" height="30" viewBox="0 0 31 30" fill="none" xmlns="http://www.w3.org/2000/svg">
<path d="M29.5426 4.0259C29.3965 3.9688 29.2561 3.94014 29.1212 3.94014C28.8178 3.94014 28.5652 4.04904 28.3628 4.26624L21.5712 11.1644V8.33314C21.5712 6.97168 21.0965 5.80789 20.1471 4.84117C19.1976 3.87457 18.0548 3.39124 16.7175 3.39124H4.85345C3.5166 3.39124 2.37336 3.87457 1.42385 4.84117C0.474696 5.80789 0 6.97168 0 8.33314V20.4131C0 21.7745 0.474696 22.9382 1.42391 23.9049C2.37342 24.8715 3.51666 25.3549 4.85351 25.3549H16.7176C18.0548 25.3549 19.1978 24.8715 20.1472 23.9049C21.0966 22.9382 21.5713 21.7745 21.5713 20.4131V17.5646L28.363 24.4798C28.5654 24.6969 28.8179 24.8058 29.1213 24.8058C29.2562 24.8058 29.3966 24.7772 29.5427 24.7202C29.9811 24.5257 30.2 24.1883 30.2 23.7079V5.03854C30.1998 4.55785 29.9809 4.22045 29.5426 4.0259Z" fill="white"/>
<path d="M7.84424 20.2561L7.84424 8.48987" stroke="#2AA48C" stroke-width="2" stroke-linecap="round"/>
<path d="M12.5505 17.5107L12.5505 11.2354" stroke="#2AA48C" stroke-width="2" stroke-linecap="round"/>
<rect x="20.7678" width="2.35325" height="32.8679" rx="1.17662" transform="rotate(30 20.7678 0)" fill="white"/>
<rect x="21.0261" y="4.25952" width="2.35325" height="25.7484" rx="1.17662" transform="rotate(30 21.0261 4.25952)" fill="#2AA48C"/>
</svg>
