<svg width="28" height="21" viewBox="0 0 28 21" fill="none" xmlns="http://www.w3.org/2000/svg">
<path d="M27.1459 0.583176C27.0117 0.530713 26.8827 0.50437 26.7587 0.50437C26.4799 0.50437 26.2479 0.604438 26.0619 0.804021L19.8212 7.14253V4.54099C19.8212 3.28998 19.385 2.2206 18.5126 1.3323C17.6402 0.44412 16.59 0 15.3613 0H4.45971C3.23131 0 2.18082 0.44412 1.30834 1.3323C0.436186 2.2206 0 3.28998 0 4.54099V15.641C0 16.8919 0.436186 17.9612 1.3084 18.8495C2.18088 19.7377 3.23137 20.1818 4.45976 20.1818H15.3614C16.5901 20.1818 17.6403 19.7377 18.5127 18.8495C19.3851 17.9612 19.8213 16.892 19.8213 15.641V13.0235L26.062 19.3777C26.248 19.5773 26.48 19.6773 26.7588 19.6773C26.8828 19.6773 27.0118 19.651 27.146 19.5986C27.5488 19.4199 27.75 19.1099 27.75 18.6684V1.51366C27.7498 1.07197 27.5487 0.76194 27.1459 0.583176Z" fill="#009899"/>
<path d="M7.20776 15.4967V4.68506M11.5324 12.9741L11.5324 7.20786" stroke="white" stroke-width="1.7" stroke-linecap="round"/>
</svg>
