<svg width="32" height="23" viewBox="0 0 32 23" fill="none" xmlns="http://www.w3.org/2000/svg">
<path d="M30.4406 1.45807C30.2946 1.40098 30.1542 1.37232 30.0192 1.37232C29.7159 1.37232 29.4634 1.4812 29.261 1.69838L22.4702 8.59561V5.76475C22.4702 4.40346 21.9956 3.23982 21.0463 2.27323C20.097 1.30675 18.9543 0.823486 17.6172 0.823486H5.75467C4.418 0.823486 3.27491 1.30675 2.32552 2.27323C1.37649 3.23982 0.901855 4.40346 0.901855 5.76475V17.8432C0.901855 19.2044 1.37649 20.3679 2.32558 21.3345C3.27497 22.301 4.41806 22.7843 5.75473 22.7843H17.6173C18.9543 22.7843 20.0971 22.301 21.0464 21.3345C21.9957 20.3679 22.4703 19.2044 22.4703 17.8432V14.995L29.2611 21.9093C29.4635 22.1264 29.716 22.2353 30.0194 22.2353C30.1543 22.2353 30.2947 22.2067 30.4407 22.1497C30.879 21.9552 31.0979 21.6179 31.0979 21.1375V2.47057C31.0978 1.98995 30.8789 1.65259 30.4406 1.45807Z" fill="white"/>
<path d="M8.74512 17.6863L8.74512 5.92157" stroke="#009899" stroke-width="2" stroke-linecap="round"/>
<path d="M13.4509 14.9412L13.4509 8.66665" stroke="#009899" stroke-width="2" stroke-linecap="round"/>
</svg>
