<svg width="24" height="23" viewBox="0 0 24 23" fill="none" xmlns="http://www.w3.org/2000/svg">
<path d="M1 12.1382C1 12.1382 5 4.13823 12 4.13823C19 4.13823 23 12.1382 23 12.1382C23 12.1382 19 20.1382 12 20.1382C5 20.1382 1 12.1382 1 12.1382Z" stroke="#A0A2B3" stroke-width="1.5" stroke-linecap="round" stroke-linejoin="round"/>
<path d="M12 15.1382C13.6569 15.1382 15 13.7951 15 12.1382C15 10.4814 13.6569 9.13823 12 9.13823C10.3431 9.13823 9 10.4814 9 12.1382C9 13.7951 10.3431 15.1382 12 15.1382Z" stroke="#A0A2B3" stroke-width="1.5" stroke-linecap="round" stroke-linejoin="round"/>
<rect x="17.7054" y="0.767691" width="1.72604" height="24.3943" transform="rotate(30 17.7054 0.767691)" fill="#A0A2B3" stroke="#F6F6F6" stroke-width="0.3"/>
</svg>
