<svg width="20" height="32" viewBox="0 0 20 32" fill="none" xmlns="http://www.w3.org/2000/svg">
<path d="M20 16.527C20 15.887 19.5221 15.3976 18.8971 15.3976C18.2721 15.3976 17.7941 15.887 17.7941 16.527C17.7941 20.9317 14.3015 24.5082 10 24.5082C5.69853 24.5082 2.20588 20.9317 2.20588 16.527C2.20588 15.887 1.72794 15.3976 1.10294 15.3976C0.477941 15.3976 -1.04909e-08 15.887 -2.42098e-08 16.527C-1.36382e-07 21.7599 3.82353 26.1646 8.89706 26.7293L8.89706 29.7411L4.88971 29.7411C4.26471 29.7411 3.78677 30.2305 3.78677 30.8705C3.78676 31.5105 4.26471 31.9999 4.88971 31.9999L15.1103 31.9999C15.7353 31.9999 16.2132 31.5105 16.2132 30.8705C16.2132 30.2305 15.7353 29.7411 15.1103 29.7411L11.1029 29.7411L11.1029 26.7293C16.1765 26.1646 20 21.7599 20 16.527Z" fill="#009899"/>
<path d="M10.0001 1.37408e-07C6.61771 6.17102e-08 3.86035 2.82353 3.86035 6.28706L3.86035 16.4894C3.86035 19.9906 6.6177 22.7765 10.0001 22.8141C13.3824 22.8141 16.1398 19.9906 16.1398 16.5271L16.1398 6.28706C16.1398 2.82353 13.3824 2.13106e-07 10.0001 1.37408e-07Z" fill="#009899"/>
</svg>
