<svg width="22" height="22" viewBox="0 0 22 22" fill="none" xmlns="http://www.w3.org/2000/svg">
<path d="M21.4331 16.233L18.6989 13.4982C17.9693 12.7686 16.6947 12.7674 15.964 13.4982L15.5081 13.9541L20.9773 19.4231L21.4331 18.9673C22.1902 18.2102 22.1876 16.9863 21.4331 16.233Z" fill="#009899"/>
<path d="M14.5715 14.8401C13.9961 15.2858 13.1753 15.268 12.6496 14.7411L7.24338 9.33117C6.71645 8.80424 6.6987 7.98284 7.14442 7.4089L1.68773 1.95251C-0.659713 4.68879 -0.567931 8.8118 2.02289 11.4026L10.5782 19.9616C13.0644 22.4477 17.1368 22.7775 20.0284 20.2967L14.5715 14.8401Z" fill="#009899"/>
<path d="M8.48658 3.28247L5.75232 0.547614C5.02279 -0.181915 3.7482 -0.183161 3.01747 0.547614L2.56152 1.00356L8.0308 6.47254L8.48658 6.01672C9.24361 5.25969 9.24111 4.03576 8.48658 3.28247Z" fill="#009899"/>
</svg>
