<svg width="30" height="30" viewBox="0 0 30 30" fill="none" xmlns="http://www.w3.org/2000/svg">
<path d="M14.4727 2.60746C14.3496 2.66605 13.0899 3.87894 11.25 5.71878L8.23243 8.7305H6.56251C4.78126 8.7305 4.3418 8.77738 3.86133 9.02347C3.54493 9.18753 3.0293 9.67386 2.84766 9.98441C2.51368 10.5528 2.51954 10.5 2.51954 15C2.51954 19.5 2.51368 19.4473 2.84766 20.0157C3.0293 20.3262 3.54493 20.8125 3.86133 20.9766C4.3418 21.2227 4.78126 21.2696 6.56251 21.2696H8.22657L11.2793 24.3106C14.6016 27.6211 14.4727 27.5157 15.1172 27.4688C15.5215 27.4395 15.8027 27.2754 16.043 26.9239L16.2012 26.6895V14.9942V3.29886L16.043 3.07035C15.7852 2.70121 15.5156 2.55472 15.0645 2.53714C14.8066 2.52542 14.6074 2.54886 14.4727 2.60746Z" fill="white"/>
<path d="M22.3887 5.9531C21.8672 6.21677 21.6035 6.77341 21.7383 7.33005C21.791 7.55271 21.9199 7.74021 22.3594 8.24412C23.7129 9.78513 24.5156 11.414 24.8496 13.2773C25.0254 14.2558 25.0254 15.7441 24.8496 16.7226C24.5156 18.5859 23.7129 20.2148 22.3594 21.7558C21.9199 22.2597 21.791 22.4472 21.7383 22.6699C21.6035 23.2265 21.8672 23.7832 22.3887 24.0469C22.7168 24.2109 22.9805 24.2344 23.3262 24.1406C23.9531 23.9648 25.4297 22.1074 26.2266 20.4844C27.4277 18.0351 27.7851 15.2168 27.2402 12.4804C26.9707 11.1269 26.2734 9.40427 25.5469 8.29099C24.75 7.0781 23.7539 5.97654 23.3496 5.86521C22.9805 5.7656 22.7226 5.78904 22.3887 5.9531Z" fill="white"/>
<path d="M19.1134 9.36912C18.7794 9.45701 18.4806 9.69725 18.3165 10.0254C18.047 10.5762 18.129 10.9922 18.6095 11.5488C19.547 12.6152 19.9806 13.7051 19.9806 15C19.9806 16.2949 19.547 17.3847 18.6095 18.4512C18.129 19.0078 18.047 19.4238 18.3165 19.9746C18.5802 20.4961 19.1368 20.7597 19.7052 20.6191C20.4376 20.4433 21.6212 18.8379 22.1134 17.3437C22.8341 15.1582 22.5118 12.7734 21.2286 10.8515C20.836 10.2597 20.2267 9.59764 19.963 9.46873C19.711 9.35154 19.3595 9.31053 19.1134 9.36912Z" fill="white"/>
</svg>
