<svg width="13" height="19" viewBox="0 0 13 19" fill="none" xmlns="http://www.w3.org/2000/svg">
<path d="M5.37 19L0.690002 10.836V8.91204H2.25C2.874 8.91204 3.42 8.82537 3.888 8.65204C4.37334 8.46137 4.772 8.1927 5.084 7.84604C5.41334 7.49937 5.63867 7.08337 5.76 6.59804H0.690002V4.67404H5.734C5.63 4.22337 5.448 3.8247 5.188 3.47804C4.94534 3.13137 4.616 2.8627 4.2 2.67204C3.80134 2.46404 3.316 2.36003 2.744 2.36003H0.690002V0.436035H12.416V2.36003H8.334C8.62867 2.68937 8.87134 3.0447 9.062 3.42604C9.27 3.80737 9.40867 4.22337 9.478 4.67404H12.416V6.59804H9.53C9.35667 7.8807 8.86267 8.88604 8.048 9.61404C7.23334 10.3247 6.18467 10.81 4.902 11.07L9.998 19H5.37Z" fill="#009899"/>
</svg>
